<svg width="32" height="40" viewBox="0 0 32 40" fill="none" xmlns="http://www.w3.org/2000/svg">
<path fill-rule="evenodd" clip-rule="evenodd" d="M32 20.5977C31.9987 20.1304 31.7854 19.689 31.42 19.3977L27.78 16.6177L31.42 13.8377C31.7854 13.5464 31.9987 13.105 32 12.6377C31.999 12.1647 31.7862 11.7171 31.42 11.4177L16.86 0.297725C16.3479 -0.0992418 15.6321 -0.0992418 15.12 0.297725L0.58 11.4177C0.216568 11.71 0.00519428 12.1513 0.00519428 12.6177C0.00519428 13.0841 0.216568 13.5254 0.58 13.8177L4.22 16.5977L0.58 19.3777C0.216568 19.67 0.00519428 20.1113 0.00519428 20.5777C0.00519428 21.0441 0.216568 21.4854 0.58 21.7777L3.44 23.9977L0.58 26.1377C0.213805 26.4371 0.00098101 26.8847 0 27.3577C0.00126346 27.825 0.214622 28.2664 0.58 28.5577L15.14 39.6977C15.3873 39.8869 15.6887 39.992 16 39.9977C16.3187 39.9993 16.6286 39.8936 16.88 39.6977L31.4 28.5777C31.7634 28.2854 31.9748 27.8441 31.9748 27.3777C31.9748 26.9113 31.7634 26.47 31.4 26.1777L28.56 23.9977L31.42 21.8177C31.7862 21.5184 31.999 21.0707 32 20.5977ZM16 3.37773L28 12.6377L16 21.8777L7.54 15.3977L4 12.6177L16 3.37773ZM6.68 18.4775L15.14 24.9575C15.3928 25.1508 15.7018 25.2561 16.02 25.2575C16.3387 25.2591 16.6486 25.1535 16.9 24.9575L25.32 18.4975L28 20.5975L25.16 22.7775L16 29.8375L6.76 22.7575L4 20.5775L6.68 18.4775ZM28 27.3779L16 36.6179L4 27.3579L6 25.8379L15.24 32.9179C15.4928 33.1111 15.8018 33.2165 16.12 33.2179H16C16.3187 33.2195 16.6286 33.1138 16.88 32.9179L26.1 25.8779L28 27.3779Z" fill="#700AAB"/>
</svg>
