<svg width="40" height="40" viewBox="0 0 40 40" fill="none" xmlns="http://www.w3.org/2000/svg">
<path fill-rule="evenodd" clip-rule="evenodd" d="M36.66 25.132C36.648 26.6647 35.398 27.9023 33.86 27.9023H26.6V12.9547H33.86C35.398 12.9547 36.648 14.1903 36.66 15.725V25.132ZM29.4 36.57C27.922 36.5162 26.768 35.2765 26.822 33.8037C26.876 32.3288 28.12 31.1789 29.6 31.2347C31.032 31.2865 32.168 32.4524 32.18 33.8814C32.136 35.3742 30.898 36.5521 29.4 36.5321V36.57ZM23.26 27.9023H6.14C4.602 27.9023 3.35 26.6647 3.34 25.132V6.09865C3.35 4.56403 4.602 3.32835 6.14 3.32835H20.46C21.998 3.32835 23.248 4.56403 23.26 6.09865V27.9023ZM13.1 33.8814C13.078 35.3782 11.842 36.572 10.34 36.5501H10.32C8.84 36.5501 7.64 35.3563 7.64 33.8814C7.64 32.4046 8.84 31.2108 10.32 31.2108C11.822 31.1769 13.066 32.3627 13.1 33.8595V33.8814ZM33.86 9.62631H26.6V6.09865C26.6 2.73044 23.86 0 20.48 0H20.46H6.14C2.756 0 0.01 2.72646 0 6.09865V25.0902C0.016 27.994 2.068 30.4873 4.92 31.0693C4.436 31.9283 4.182 32.8969 4.18 33.8814C4.182 37.2596 6.932 39.998 10.322 39.998C13.712 39.996 16.458 37.2576 16.46 33.8814C16.456 32.9487 16.222 32.0319 15.78 31.2108H24C23.536 32.0259 23.284 32.9427 23.26 33.8814C23.26 37.2596 26.01 40 29.4 40C32.79 40 35.538 37.2596 35.538 33.8814C35.532 32.9088 35.278 31.9581 34.8 31.1111C37.772 30.6587 39.974 28.1256 40 25.132V15.725C39.988 12.3528 37.244 9.62631 33.86 9.62631Z" fill="#700AAB"/>
</svg>
