<svg width="40" height="23" viewBox="0 0 40 23" fill="none" xmlns="http://www.w3.org/2000/svg">
<path fill-rule="evenodd" clip-rule="evenodd" d="M35.32 9.78218H32.18C32.5242 9.17105 32.7098 8.48347 32.72 7.78218V4.48217C32.6939 3.26027 32.1805 2.09948 31.294 1.2581C30.4076 0.416716 29.2216 -0.0354633 28 0.00217486H8C5.50131 -0.00933167 3.45453 1.98405 3.4 4.48217V7.74217C3.42152 8.44709 3.62104 9.13511 3.98 9.74218C1.70557 10.0338 0.00149036 11.9691 0 14.2622V17.5222C0.026234 18.737 0.534114 19.8915 1.41185 20.7318C2.28958 21.572 3.46523 22.029 4.68 22.0022H35.32C36.5348 22.029 37.7104 21.572 38.5882 20.7318C39.4659 19.8915 39.9738 18.737 40 17.5222V14.2622C39.9738 13.0474 39.4659 11.8928 38.5882 11.0526C37.7104 10.2124 36.5348 9.75536 35.32 9.78218ZM19.08 15.8822C19.1878 13.8648 20.9018 12.3115 22.92 12.4022C24.9382 12.3115 26.6522 13.8648 26.76 15.8822C26.6628 17.9075 24.9457 19.4727 22.92 19.3822C20.8943 19.4727 19.1772 17.9075 19.08 15.8822ZM33.6 19.3822C31.5743 19.4727 29.8572 17.9075 29.76 15.8822C29.8678 13.8648 31.5818 12.3115 33.6 12.4022C35.6182 12.3115 37.3322 13.8648 37.44 15.8822C37.3428 17.9075 35.6257 19.4727 33.6 19.3822ZM26.32 2.62239C28.3457 2.5319 30.0628 4.09704 30.16 6.12239C30.0522 8.13979 28.3382 9.6931 26.32 9.60239C24.3018 9.6931 22.5878 8.13979 22.48 6.12239C22.5772 4.09704 24.2943 2.5319 26.32 2.62239ZM6 4.48238C5.98926 3.94505 6.19521 3.42601 6.57146 3.04224C6.9477 2.65847 7.46257 2.44228 8 2.44238H21.24C20.4072 3.48527 19.9682 4.78813 20 6.12238C20.0144 7.47411 20.519 8.77466 21.42 9.78238H8C7.46257 9.78249 6.9477 9.56629 6.57146 9.18253C6.19521 8.79876 5.98926 8.27971 6 7.74238V4.48238ZM4.68 19.5622C4.1291 19.5953 3.589 19.3993 3.18756 19.0206C2.78611 18.6418 2.55901 18.1141 2.56 17.5622V14.2622C2.55901 13.7103 2.78611 13.1825 3.18756 12.8038C3.589 12.4251 4.1291 12.2291 4.68 12.2622H18C17.9417 12.3318 17.8883 12.4053 17.84 12.4822L17.6 12.8022C17.48 13.0022 17.36 13.2022 17.26 13.4022L17.08 13.7622C16.98 14.0022 16.92 14.2422 16.84 14.4822C16.8463 14.5954 16.8463 14.7089 16.84 14.8222C16.7694 15.1849 16.7292 15.5528 16.72 15.9222C16.7281 16.2982 16.7683 16.6729 16.84 17.0422C16.8489 17.1553 16.8489 17.269 16.84 17.3822C16.8775 17.5908 16.9242 17.7977 16.98 18.0022L17.16 18.3822C17.2614 18.5823 17.3749 18.776 17.5 18.9622L17.74 19.3022C17.8185 19.3966 17.9055 19.4837 18 19.5622H4.68Z" fill="#700AAB"/>
</svg>
