<svg width="30" height="40" viewBox="0 0 30 40" fill="none" xmlns="http://www.w3.org/2000/svg">
<path fill-rule="evenodd" clip-rule="evenodd" d="M27.54 16.16V4.88C27.54 2.18485 25.3552 0 22.66 0H7.34C4.64485 0 2.46 2.18485 2.46 4.88V16.16C0.926951 17.1896 0.00518047 18.9133 0 20.76V34.46C-1.98874e-05 37.5119 2.46816 39.989 5.52 40H24.48C27.5318 39.989 30 37.5119 30 34.46V20.76C29.9984 18.9124 29.0758 17.1872 27.54 16.16ZM5.54 4.88C5.55096 3.84952 6.38947 3.01994 7.42 3.02H22.74C23.7705 3.01994 24.609 3.84952 24.62 4.88V15.24H5.46L5.54 4.88ZM26.98 34.46C26.9853 35.1265 26.7243 35.7675 26.2549 36.2407C25.7855 36.7139 25.1465 36.98 24.48 36.98H5.52C4.85348 36.98 4.21454 36.7139 3.74512 36.2407C3.2757 35.7675 3.01467 35.1265 3.02 34.46V20.76C3.01996 19.376 4.13606 18.251 5.52 18.24H24.48C25.8639 18.251 26.98 19.376 26.98 20.76V34.46Z" fill="#700AAB"/>
<path fill-rule="evenodd" clip-rule="evenodd" d="M17.52 25.5C17.4033 24.1897 16.3055 23.1852 14.99 23.1852C13.6744 23.1852 12.5766 24.1897 12.46 25.5C12.4678 26.4397 12.9899 27.2996 13.82 27.74L12.46 31.88H17.52L16.18 27.74C17.0055 27.2975 17.5205 26.4366 17.52 25.5Z" fill="#700AAB"/>
</svg>
