<svg width="26" height="40" viewBox="0 0 26 40" fill="none" xmlns="http://www.w3.org/2000/svg">
<path fill-rule="evenodd" clip-rule="evenodd" d="M25.7265 32.0137L13.8891 2.94373C13.2421 0.92034 11.1734 -0.311569 9.06123 0.0686736L3.52635 1.20671C2.3948 1.40823 1.39535 2.05718 0.758911 3.00362C0.134592 3.89413 -0.118614 4.98814 0.051901 6.05836L4.92017 36.6657C5.18863 37.8061 5.91886 38.7877 6.9402 39.381C7.60788 39.7883 8.37761 40.0027 9.16223 39.9999C9.49584 39.9996 9.82819 39.9593 10.152 39.8802L22.7772 37.5841C23.9553 37.2913 24.951 36.5156 25.5142 35.4518C26.0774 34.388 26.1546 33.1373 25.7265 32.0137ZM2.94054 5.63937C2.85404 5.26784 2.92717 4.8775 3.14254 4.56123C3.3724 4.26851 3.7179 4.08687 4.09195 4.06209L9.62683 3.00391H9.88943C10.525 3.00501 11.084 3.41941 11.2631 4.02215L22.1914 30.8959L7.3644 33.8308L2.94054 5.63937ZM22.9792 34.1504C22.8034 34.4828 22.4963 34.7285 22.1308 34.8292L9.46524 37.1253C9.09104 37.2295 8.69009 37.179 8.35422 36.9855C8.04243 36.7979 7.81759 36.4968 7.72801 36.147V35.8475L22.9994 32.7129L23.1206 33.0323C23.2396 33.4077 23.188 33.8156 22.9792 34.1504ZM6.5968 5.2002L12.8993 28.3404L9.82884 29.139L5.78879 5.37989L6.5968 5.2002ZM14.9799 22.0309L13.1417 22.53L11.1217 13.3658L11.9903 13.1462L14.9799 22.0309Z" fill="#700AAB"/>
</svg>
