<svg width="38" height="40" viewBox="0 0 38 40" fill="none" xmlns="http://www.w3.org/2000/svg">
<path fill-rule="evenodd" clip-rule="evenodd" d="M32.7338 9.62746H4.48777L11.1016 2.53436C11.5508 2.21242 11.7666 1.63683 11.6461 1.08188C11.5256 0.526917 11.0932 0.104851 10.555 0.0167873C10.0167 -0.0712761 9.48149 0.192479 9.20431 0.682375L0.338638 10.109C-0.112879 10.6362 -0.112879 11.4337 0.338638 11.961L9.20431 21.369C9.45053 21.6364 9.78892 21.7898 10.1441 21.795C10.497 21.7967 10.8358 21.6499 11.0838 21.3876C11.6024 20.8453 11.6024 19.9667 11.0838 19.4245L4.5055 12.4054H32.7338C34.2155 12.3848 35.4353 13.6174 35.4644 15.1649V34.444C35.4553 35.2005 35.155 35.9213 34.6313 36.4439C34.1076 36.9665 33.4045 37.247 32.6806 37.222H24.5596C23.8252 37.222 23.2298 37.8439 23.2298 38.611C23.2298 39.3781 23.8252 40 24.5596 40H32.6806C35.6184 40 38 37.5125 38 34.444V15.1834C38.0001 12.1365 35.6508 9.65793 32.7338 9.62746Z" fill="#700AAB"/>
</svg>
