<svg width="40" height="37" viewBox="0 0 40 37" fill="none" xmlns="http://www.w3.org/2000/svg">
<path fill-rule="evenodd" clip-rule="evenodd" d="M39.9995 21.0591C39.9765 18.5079 38.2522 16.2924 35.8 15.6632C35.4642 6.98977 28.4462 0.10314 19.8381 0C11.182 0.115314 4.14473 7.07064 3.85759 15.7943C1.28161 16.5931 -0.331752 19.1667 0.0578256 21.8555C0.447403 24.5443 2.72351 26.545 5.41847 26.5674C8.16619 26.5192 10.4538 24.427 10.7687 21.6744C11.0835 18.9217 9.32817 16.3594 6.66347 15.6819C6.97803 8.54907 12.7574 2.90263 19.8381 2.81037C26.9631 2.91548 32.7561 8.6329 33.0127 15.813C30.6102 16.6004 29.0564 18.9459 29.2552 21.4851C29.4541 24.0244 31.3536 26.095 33.8489 26.4925C33.1985 29.1342 30.3555 30.3333 27.1408 31.6823L25.2826 32.5067C24.834 32.0985 24.2517 31.8716 23.6474 31.8696C22.6075 31.816 21.6401 32.4062 21.2048 33.3599C20.7694 34.3135 20.954 35.4384 21.6707 36.1999C22.3873 36.9615 23.4917 37.2062 24.4591 36.8178C25.4264 36.4294 26.0617 35.4863 26.063 34.4365C26.0733 34.3556 26.0733 34.2737 26.063 34.1929L27.9212 33.4247C31.3403 31.9821 35.1496 30.3333 35.8 26.455C38.2791 25.868 40.0235 23.6266 39.9995 21.0591ZM8.01995 21.0591C8.03043 22.5244 6.87146 23.7263 5.41847 23.757C4.02191 23.6398 2.94765 22.4627 2.94765 21.0497C2.94765 19.6367 4.02191 18.4596 5.41847 18.3424C6.87878 18.3731 8.0407 19.5865 8.01995 21.0591ZM34.6293 23.757C33.5289 23.803 32.5115 23.1689 32.0601 22.1559C31.6088 21.1429 31.8144 19.9549 32.5793 19.1559C33.3442 18.3569 34.5145 18.1077 35.5345 18.5268C36.5545 18.9458 37.2189 19.9486 37.2122 21.0591C37.2229 22.5173 36.075 23.7163 34.6293 23.757Z" fill="#700AAB"/>
</svg>
