<svg width="23" height="7" viewBox="0 0 23 7" fill="none" xmlns="http://www.w3.org/2000/svg">
<g clip-path="url(#clip0_1_2)">
<path d="M12.0996 6C13.4804 6 14.5996 4.88083 14.5996 3.5C14.5996 2.11917 13.4804 1 12.0996 1C10.7188 1 9.59961 2.11917 9.59961 3.5C9.59961 4.88083 10.7188 6 12.0996 6Z" fill="#B0BAC9"/>
<path d="M20.5 6C21.8808 6 23 4.88083 23 3.5C23 2.11917 21.8808 1 20.5 1C19.1192 1 18 2.11917 18 3.5C18 4.88083 19.1192 6 20.5 6Z" fill="#B0BAC9"/>
<path d="M3.09961 6C4.48044 6 5.59961 4.88083 5.59961 3.5C5.59961 2.11917 4.48044 1 3.09961 1C1.71878 1 0.599609 2.11917 0.599609 3.5C0.599609 4.88083 1.71878 6 3.09961 6Z" fill="#B0BAC9"/>
</g>
<defs>
<clipPath id="clip0_1_2">
<rect width="23" height="7" fill="white"/>
</clipPath>
</defs>
</svg>
