<svg width="35" height="23" viewBox="0 0 35 23" fill="none" xmlns="http://www.w3.org/2000/svg">
<path d="M33.0762 11.69C33.0762 17.3396 28.379 21.96 22.5342 21.96C16.6894 21.96 11.9922 17.3396 11.9922 11.69C11.9922 6.04036 16.6894 1.41998 22.5342 1.41998C28.379 1.41998 33.0762 6.04036 33.0762 11.69Z" fill="white" stroke="#02021D" stroke-width="2"/>
<path d="M27.5801 11.69C27.5801 17.3396 22.8829 21.96 17.0381 21.96C11.1933 21.96 6.49609 17.3396 6.49609 11.69C6.49609 6.04036 11.1933 1.41998 17.0381 1.41998C22.8829 1.41998 27.5801 6.04036 27.5801 11.69Z" fill="white" stroke="#02021D" stroke-width="2"/>
<path d="M23.084 11.69C23.084 17.9142 17.9164 22.96 11.542 22.96C5.16752 22.96 0 17.9142 0 11.69C0 5.46573 5.16752 0.419983 11.542 0.419983C17.9164 0.419983 23.084 5.46573 23.084 11.69Z" fill="#02021D"/>
</svg>
