<svg width="97" height="24" viewBox="0 0 97 24" fill="none" xmlns="http://www.w3.org/2000/svg">
<path d="M9.68999 23.04C8.23297 23.04 6.97897 22.8721 5.928 22.5362C4.87703 22.2003 3.90966 21.7656 3.02589 21.232L1.34195 22.6547H0.26709V16.4305H1.37777C1.6644 17.3987 2.13017 18.3076 2.77509 19.1573C3.44389 20.007 4.3396 20.6985 5.46223 21.232C6.58485 21.7458 7.95828 22.0027 9.58251 22.0027C10.9201 22.0027 12.0308 21.8248 12.9146 21.4692C13.8222 21.1135 14.503 20.6294 14.9568 20.0168C15.4345 19.3845 15.6734 18.693 15.6734 17.9421C15.6734 17.1715 15.4584 16.5491 15.0284 16.0748C14.5985 15.6006 14.0372 15.2351 13.3445 14.9782C12.6757 14.7016 11.9472 14.4842 11.159 14.3261C10.3946 14.168 9.66611 14.0198 8.97342 13.8815C7.30142 13.5259 5.83245 13.0615 4.56651 12.4885C3.30057 11.8957 2.30932 11.135 1.59275 10.2063C0.900061 9.27758 0.553718 8.12165 0.553718 6.73849C0.553718 5.21701 0.947832 3.96229 1.73606 2.97432C2.52429 1.98634 3.56331 1.25524 4.85314 0.781018C6.14297 0.287032 7.5164 0.0400391 8.97342 0.0400391C10.0483 0.0400391 11.0037 0.168475 11.8397 0.425347C12.6996 0.68222 13.6072 1.05765 14.5627 1.55164L15.96 0.306792H17.0707V6.35318H15.9958C15.3031 4.47604 14.3716 3.13239 13.2012 2.32225C12.0308 1.49236 10.5976 1.07741 8.90176 1.07741C7.87468 1.07741 6.9312 1.21573 6.07131 1.49236C5.23531 1.74923 4.56651 2.12466 4.06491 2.61865C3.56331 3.11263 3.31251 3.69554 3.31251 4.36736C3.31251 4.99966 3.52749 5.52329 3.95743 5.93823C4.38737 6.33342 4.94868 6.64957 5.64137 6.88669C6.33405 7.1238 7.07451 7.32139 7.86274 7.47947C8.65096 7.63755 9.40336 7.78574 10.1199 7.92406C11.9352 8.27973 13.4639 8.77372 14.706 9.40602C15.948 10.0186 16.8915 10.8287 17.5364 11.8364C18.1814 12.8442 18.5038 14.1088 18.5038 15.6302C18.5038 17.9619 17.7395 19.7797 16.2108 21.0839C14.706 22.388 12.5324 23.04 9.68999 23.04Z" fill="#02021D"/>
<path d="M34.1371 23.04C32.274 23.04 30.5303 22.7239 28.9061 22.0916C27.3058 21.4593 25.8965 20.5997 24.6784 19.513C23.4841 18.4262 22.5406 17.1912 21.8479 15.8081C21.1791 14.4249 20.8447 12.9726 20.8447 11.4511C20.8447 9.92964 21.1791 8.4872 21.8479 7.1238C22.5406 5.74064 23.4841 4.52543 24.6784 3.47818C25.8965 2.41117 27.3058 1.5714 28.9061 0.958852C30.5303 0.34631 32.274 0.0400391 34.1371 0.0400391C36.0002 0.0400391 37.7438 0.34631 39.368 0.958852C40.9923 1.5714 42.4015 2.41117 43.5958 3.47818C44.814 4.52543 45.7575 5.74064 46.4263 7.1238C47.1189 8.4872 47.4653 9.92964 47.4653 11.4511C47.4653 12.9726 47.1189 14.4249 46.4263 15.8081C45.7575 17.1912 44.814 18.4262 43.5958 19.513C42.4015 20.5997 40.9923 21.4593 39.368 22.0916C37.7438 22.7239 36.0002 23.04 34.1371 23.04ZM34.1013 22.0027C35.3194 22.0027 36.3465 21.8545 37.1825 21.5581C38.0185 21.2419 38.6873 20.6985 39.1889 19.9279C39.7144 19.1573 40.0846 18.0903 40.2996 16.7269C40.5384 15.3635 40.6579 13.6247 40.6579 11.5104C40.6579 9.39614 40.5384 7.66719 40.2996 6.32354C40.0846 4.96014 39.7144 3.90301 39.1889 3.15215C38.6873 2.38153 38.0185 1.84803 37.1825 1.55164C36.3465 1.23549 35.3194 1.07741 34.1013 1.07741C32.907 1.07741 31.8918 1.23549 31.0558 1.55164C30.2437 1.84803 29.5869 2.37165 29.0853 3.12251C28.5837 3.87337 28.2134 4.9305 27.9746 6.2939C27.7596 7.63755 27.6521 9.35662 27.6521 11.4511C27.6521 13.6049 27.7596 15.3734 27.9746 16.7565C28.2134 18.1199 28.5837 19.1869 29.0853 19.9576C29.6107 20.7084 30.2795 21.2419 31.0917 21.5581C31.9277 21.8545 32.9309 22.0027 34.1013 22.0027Z" fill="#02021D"/>
<path d="M58.4733 12.5181V11.629H61.4471C62.7608 11.629 63.8237 11.4906 64.6358 11.214C65.4479 10.9176 66.0451 10.3841 66.4273 9.61349C66.8094 8.82311 67.0005 7.68695 67.0005 6.20499C67.0005 4.80207 66.8453 3.74493 66.5348 3.03359C66.2242 2.32225 65.7585 1.83815 65.1374 1.58128C64.5403 1.3244 63.7879 1.19597 62.8802 1.19597H49.6237V0.306792H64.6717C66.3914 0.306792 67.9321 0.563664 69.2935 1.07741C70.6789 1.59116 71.7777 2.3025 72.5898 3.21143C73.4019 4.10061 73.8079 5.1281 73.8079 6.2939C73.8079 7.51899 73.3063 8.60576 72.3031 9.55421C71.3238 10.4829 69.9146 11.214 68.0754 11.7475C66.2362 12.2613 64.0267 12.5181 61.4471 12.5181H58.4733ZM49.6237 22.6547V21.7656H62.9161V22.6547H49.6237ZM53.0274 22.2101V0.306792H58.6883V22.2101H53.0274Z" fill="#02021D"/>
<path d="M88.5085 22.2101L81.9519 7.36091H81.8086L81.5936 6.26427L84.03 0.0400391H84.9615L94.7069 22.2101H88.5085ZM70.3077 22.6547V21.7656H79.0498V22.6547H70.3077ZM76.721 16.6083V15.7488H89.046V16.6083H76.721ZM84.5674 22.6547V21.7656H96.9999V22.6547H84.5674ZM73.4606 22.2101L84.03 0.0400391H84.9615L83.0984 4.75267L74.6429 22.2101H73.4606Z" fill="#02021D"/>
</svg>
