<svg width="144" height="24" viewBox="0 0 144 24" fill="none" xmlns="http://www.w3.org/2000/svg">
<path d="M33.0762 12.69C33.0762 18.3396 28.379 22.96 22.5342 22.96C16.6894 22.96 11.9922 18.3396 11.9922 12.69C11.9922 7.04036 16.6894 2.41998 22.5342 2.41998C28.379 2.41998 33.0762 7.04036 33.0762 12.69Z" fill="white" stroke="#02021D" strokeWidth="2"/>
<path d="M27.5801 12.69C27.5801 18.3396 22.8829 22.96 17.0381 22.96C11.1933 22.96 6.49609 18.3396 6.49609 12.69C6.49609 7.04036 11.1933 2.41998 17.0381 2.41998C22.8829 2.41998 27.5801 7.04036 27.5801 12.69Z" fill="white" stroke="#02021D" strokeWidth="2"/>
<path d="M23.084 12.69C23.084 18.9142 17.9164 23.96 11.542 23.96C5.16752 23.96 0 18.9142 0 12.69C0 6.46573 5.16752 1.41998 11.542 1.41998C17.9164 1.41998 23.084 6.46573 23.084 12.69Z" fill="#02021D"/>
<path d="M56.69 23.04C55.233 23.04 53.979 22.872 52.928 22.5361C51.877 22.2002 50.9097 21.7655 50.0259 21.232L48.3419 22.6547H47.2671V16.4304H48.3778C48.6644 17.3987 49.1302 18.3076 49.7751 19.1572C50.4439 20.0069 51.3396 20.6985 52.4622 21.232C53.5849 21.7457 54.9583 22.0026 56.5825 22.0026C57.9201 22.0026 59.0308 21.8248 59.9146 21.4691C60.8222 21.1134 61.503 20.6293 61.9568 20.0168C62.4345 19.3845 62.6734 18.6929 62.6734 17.942C62.6734 17.1714 62.4584 16.549 62.0284 16.0748C61.5985 15.6005 61.0372 15.235 60.3445 14.9781C59.6757 14.7015 58.9472 14.4841 58.159 14.3261C57.3946 14.168 56.6661 14.0198 55.9734 13.8815C54.3014 13.5258 52.8325 13.0615 51.5665 12.4884C50.3006 11.8956 49.3093 11.1349 48.5927 10.2062C47.9001 9.27752 47.5537 8.12159 47.5537 6.73843C47.5537 5.21695 47.9478 3.96223 48.7361 2.97426C49.5243 1.98628 50.5633 1.25518 51.8531 0.780957C53.143 0.286971 54.5164 0.039978 55.9734 0.039978C57.0483 0.039978 58.0037 0.168414 58.8397 0.425286C59.6996 0.682159 60.6072 1.05759 61.5627 1.55158L62.96 0.306731H64.0707V6.35312H62.9958C62.3031 4.47597 61.3716 3.13233 60.2012 2.32219C59.0308 1.4923 57.5976 1.07735 55.9018 1.07735C54.8747 1.07735 53.9312 1.21566 53.0713 1.4923C52.2353 1.74917 51.5665 2.1246 51.0649 2.61858C50.5633 3.11257 50.3125 3.69548 50.3125 4.3673C50.3125 4.9996 50.5275 5.52322 50.9574 5.93817C51.3874 6.33336 51.9487 6.64951 52.6414 6.88663C53.3341 7.12374 54.0745 7.32133 54.8627 7.47941C55.651 7.63749 56.4034 7.78568 57.1199 7.924C58.9352 8.27967 60.4639 8.77365 61.706 9.40596C62.948 10.0185 63.8915 10.8286 64.5364 11.8364C65.1814 12.8441 65.5038 14.1087 65.5038 15.6302C65.5038 17.9618 64.7395 19.7797 63.2108 21.0838C61.706 22.3879 59.5324 23.04 56.69 23.04Z" fill="#02021D"/>
<path d="M81.1371 23.04C79.274 23.04 77.5303 22.7238 75.9061 22.0915C74.3058 21.4592 72.8965 20.5997 71.6784 19.5129C70.4841 18.4261 69.5406 17.1912 68.8479 15.808C68.1791 14.4249 67.8447 12.9725 67.8447 11.4511C67.8447 9.92958 68.1791 8.48714 68.8479 7.12374C69.5406 5.74058 70.4841 4.52537 71.6784 3.47812C72.8965 2.41111 74.3058 1.57133 75.9061 0.958791C77.5303 0.346249 79.274 0.039978 81.1371 0.039978C83.0002 0.039978 84.7438 0.346249 86.368 0.958791C87.9923 1.57133 89.4015 2.41111 90.5958 3.47812C91.814 4.52537 92.7575 5.74058 93.4263 7.12374C94.1189 8.48714 94.4653 9.92958 94.4653 11.4511C94.4653 12.9725 94.1189 14.4249 93.4263 15.808C92.7575 17.1912 91.814 18.4261 90.5958 19.5129C89.4015 20.5997 87.9923 21.4592 86.368 22.0915C84.7438 22.7238 83.0002 23.04 81.1371 23.04ZM81.1013 22.0026C82.3194 22.0026 83.3465 21.8544 84.1825 21.558C85.0185 21.2419 85.6873 20.6985 86.1889 19.9279C86.7144 19.1572 87.0846 18.0902 87.2996 16.7268C87.5384 15.3634 87.6579 13.6246 87.6579 11.5103C87.6579 9.39608 87.5384 7.66713 87.2996 6.32348C87.0846 4.96008 86.7144 3.90295 86.1889 3.15209C85.6873 2.38147 85.0185 1.84797 84.1825 1.55158C83.3465 1.23542 82.3194 1.07735 81.1013 1.07735C79.907 1.07735 78.8918 1.23542 78.0558 1.55158C77.2437 1.84797 76.5869 2.37159 76.0853 3.12245C75.5837 3.87331 75.2134 4.93044 74.9746 6.29384C74.7596 7.63749 74.6521 9.35656 74.6521 11.4511C74.6521 13.6048 74.7596 15.3733 74.9746 16.7565C75.2134 18.1199 75.5837 19.1869 76.0853 19.9575C76.6107 20.7084 77.2795 21.2419 78.0917 21.558C78.9277 21.8544 79.9309 22.0026 81.1013 22.0026Z" fill="#02021D"/>
<path d="M105.473 12.5181V11.6289H108.447C109.761 11.6289 110.824 11.4906 111.636 11.2139C112.448 10.9176 113.045 10.384 113.427 9.61343C113.809 8.82305 114.001 7.68688 114.001 6.20493C114.001 4.802 113.845 3.74487 113.535 3.03353C113.224 2.32219 112.758 1.83809 112.137 1.58121C111.54 1.32434 110.788 1.19591 109.88 1.19591H96.6237V0.306731H111.672C113.391 0.306731 114.932 0.563603 116.294 1.07735C117.679 1.59109 118.778 2.30243 119.59 3.21137C120.402 4.10054 120.808 5.12804 120.808 6.29384C120.808 7.51893 120.306 8.6057 119.303 9.55415C118.324 10.4828 116.915 11.2139 115.075 11.7475C113.236 12.2612 111.027 12.5181 108.447 12.5181H105.473ZM96.6237 22.6547V21.7655H109.916V22.6547H96.6237ZM100.027 22.2101V0.306731H105.688V22.2101H100.027Z" fill="#02021D"/>
<path d="M135.509 22.2101L128.952 7.36085H128.809L128.594 6.2642L131.03 0.039978H131.962L141.707 22.2101H135.509ZM117.308 22.6547V21.7655H126.05V22.6547H117.308ZM123.721 16.6083V15.7487H136.046V16.6083H123.721ZM131.567 22.6547V21.7655H144V22.6547H131.567ZM120.461 22.2101L131.03 0.039978H131.962L130.098 4.75261L121.643 22.2101H120.461Z" fill="#02021D"/>
</svg>
