<svg width="121" height="35" viewBox="0 0 121 35" fill="none" xmlns="http://www.w3.org/2000/svg">
<path d="M11.8626 34.3198C10.0413 34.3198 8.47383 34.0715 7.16012 33.575C5.84641 33.0784 4.63719 32.4358 3.53248 31.6471L1.42755 33.7502H0.0839844V24.5492H1.47234C1.83062 25.9805 2.41284 27.3241 3.21898 28.5801C4.05498 29.8361 5.17462 30.8585 6.5779 31.6471C7.98119 32.4066 9.69797 32.7863 11.7283 32.7863C13.4003 32.7863 14.7886 32.5234 15.8933 31.9977C17.0279 31.4719 17.8788 30.7563 18.4461 29.8508C19.0432 28.916 19.3418 27.8937 19.3418 26.7837C19.3418 25.6446 19.0731 24.7245 18.5357 24.0234C17.9982 23.3224 17.2966 22.782 16.4307 22.4023C15.5948 21.9934 14.6841 21.6721 13.6988 21.4384C12.7434 21.2047 11.8328 20.9856 10.9669 20.7812C8.8769 20.2554 7.04069 19.569 5.45826 18.7219C3.87584 17.8456 2.63677 16.721 1.74105 15.3482C0.875198 13.9753 0.44227 12.2666 0.44227 10.2219C0.44227 7.97275 0.934912 6.11793 1.9202 4.65745C2.90548 3.19697 4.20427 2.11621 5.81655 1.41518C7.42883 0.684944 9.14562 0.319824 10.9669 0.319824C12.3105 0.319824 13.5048 0.509686 14.5498 0.88941C15.6246 1.26914 16.7592 1.82412 17.9535 2.55436L19.7001 0.714154H21.0885V9.6523H19.7449C18.879 6.87738 17.7146 4.89113 16.2516 3.69353C14.7886 2.46673 12.9972 1.85333 10.8773 1.85333C9.59347 1.85333 8.41412 2.0578 7.33926 2.46673C6.29426 2.84646 5.45826 3.40144 4.83126 4.13168C4.20426 4.86192 3.89077 5.7236 3.89077 6.71673C3.89077 7.65144 4.15948 8.42549 4.69691 9.0389C5.23433 9.62309 5.93598 10.0904 6.80183 10.441C7.66769 10.7915 8.59326 11.0836 9.57854 11.3172C10.5638 11.5509 11.5043 11.77 12.4 11.9745C14.6692 12.5002 16.58 13.2305 18.1326 14.1652C19.6852 15.0707 20.8645 16.2683 21.6707 17.758C22.4768 19.2477 22.8799 21.1171 22.8799 23.3662C22.8799 26.813 21.9245 29.5002 20.0136 31.4281C18.1326 33.3559 15.4156 34.3198 11.8626 34.3198Z" fill="white"/>
<path d="M42.4215 34.3198C40.0926 34.3198 37.9131 33.8525 35.8828 32.9178C33.8823 31.9831 32.1208 30.7124 30.5981 29.1059C29.1052 27.4994 27.9258 25.6738 27.06 23.6291C26.224 21.5844 25.806 19.4375 25.806 17.1884C25.806 14.9392 26.224 12.8069 27.06 10.7915C27.9258 8.7468 29.1052 6.95041 30.5981 5.4023C32.1208 3.82498 33.8823 2.58357 35.8828 1.67807C37.9131 0.772573 40.0926 0.319824 42.4215 0.319824C44.7503 0.319824 46.9299 0.772573 48.9602 1.67807C50.9905 2.58357 52.752 3.82498 54.2449 5.4023C55.7676 6.95041 56.947 8.7468 57.783 10.7915C58.6488 12.8069 59.0817 14.9392 59.0817 17.1884C59.0817 19.4375 58.6488 21.5844 57.783 23.6291C56.947 25.6738 55.7676 27.4994 54.2449 29.1059C52.752 30.7124 50.9905 31.9831 48.9602 32.9178C46.9299 33.8525 44.7503 34.3198 42.4215 34.3198ZM42.3767 32.7863C43.8994 32.7863 45.1833 32.5672 46.2283 32.1291C47.2733 31.6617 48.1093 30.8585 48.7363 29.7193C49.3931 28.5801 49.8559 27.0028 50.1246 24.9874C50.4232 22.9719 50.5725 20.4014 50.5725 17.276C50.5725 14.1506 50.4232 11.5947 50.1246 9.60848C49.8559 7.59302 49.3931 6.0303 48.7363 4.92034C48.1093 3.78116 47.2733 2.9925 46.2283 2.55436C45.1833 2.08701 43.8994 1.85333 42.3767 1.85333C40.8838 1.85333 39.6149 2.08701 38.5699 2.55436C37.5548 2.9925 36.7337 3.76656 36.1067 4.87652C35.4797 5.98649 35.0169 7.5492 34.7183 9.56467C34.4496 11.5509 34.3153 14.0922 34.3153 17.1884C34.3153 20.3722 34.4496 22.9865 34.7183 25.0312C35.0169 27.0466 35.4797 28.6239 36.1067 29.7631C36.7636 30.8731 37.5996 31.6617 38.6147 32.1291C39.6597 32.5672 40.9137 32.7863 42.3767 32.7863Z" fill="white"/>
<path d="M72.8418 18.7657V17.4513H76.559C78.2011 17.4513 79.5298 17.2468 80.5449 16.8379C81.5601 16.3997 82.3065 15.6111 82.7842 14.4719C83.2619 13.3035 83.5008 11.6239 83.5008 9.43323C83.5008 7.35934 83.3067 5.79663 82.9186 4.74508C82.5304 3.69353 81.9482 2.9779 81.1719 2.59817C80.4255 2.21845 79.485 2.02859 78.3504 2.02859H61.7797V0.714154H80.5897C82.7394 0.714154 84.6652 1.09388 86.3671 1.85333C88.0988 2.61278 89.4722 3.66433 90.4873 5.00797C91.5025 6.3224 92.01 7.8413 92.01 9.56467C92.01 11.3757 91.383 12.9822 90.129 14.3843C88.9049 15.7571 87.1433 16.8379 84.8443 17.6265C82.5453 18.386 79.7836 18.7657 76.559 18.7657H72.8418ZM61.7797 33.7502V32.4358H78.3952V33.7502H61.7797ZM66.0344 33.093V0.714154H73.1105V33.093H66.0344Z" fill="white"/>
<path d="M110.386 33.093L102.19 11.142H102.011L101.742 9.52085L104.788 0.319824H105.952L118.134 33.093H110.386ZM87.6347 33.7502V32.4358H98.5624V33.7502H87.6347ZM95.6513 24.8121V23.5415H111.058V24.8121H95.6513ZM105.459 33.7502V32.4358H121V33.7502H105.459ZM91.5758 33.093L104.788 0.319824H105.952L103.623 7.28632L93.0538 33.093H91.5758Z" fill="white"/>
</svg>
