<svg width="180" height="36" viewBox="0 0 180 36" fill="none" xmlns="http://www.w3.org/2000/svg">
<path d="M41.5952 19.02C41.5952 27.8087 35.4533 34.68 28.1677 34.68C20.8821 34.68 14.7402 27.8087 14.7402 19.02C14.7402 10.2313 20.8821 3.35999 28.1677 3.35999C35.4533 3.35999 41.5952 10.2313 41.5952 19.02Z" fill="#02021D" stroke="white" strokeWidth="2"/>
<path d="M34.7251 19.02C34.7251 27.8087 28.5832 34.68 21.2976 34.68C14.012 34.68 7.87012 27.8087 7.87012 19.02C7.87012 10.2313 14.012 3.35999 21.2976 3.35999C28.5832 3.35999 34.7251 10.2313 34.7251 19.02Z" fill="#02021D" stroke="white" strokeWidth="2"/>
<path d="M28.855 19.02C28.855 28.2211 22.3956 35.68 14.4275 35.68C6.4594 35.68 0 28.2211 0 19.02C0 9.81892 6.4594 2.35999 14.4275 2.35999C22.3956 2.35999 28.855 9.81892 28.855 19.02Z" fill="white"/>
<path d="M70.8626 34.3199C69.0413 34.3199 67.4738 34.0717 66.1601 33.5751C64.8464 33.0785 63.6372 32.4359 62.5325 31.6473L60.4276 33.7504H59.084V24.5493H60.4723C60.8306 25.9806 61.4128 27.3242 62.219 28.5803C63.055 29.8363 64.1746 30.8586 65.5779 31.6473C66.9812 32.4067 68.698 32.7864 70.7283 32.7864C72.4003 32.7864 73.7886 32.5236 74.8933 31.9978C76.0279 31.472 76.8788 30.7564 77.4461 29.8509C78.0432 28.9162 78.3418 27.8938 78.3418 26.7839C78.3418 25.6447 78.0731 24.7246 77.5357 24.0236C76.9982 23.3225 76.2966 22.7821 75.4307 22.4024C74.5948 21.9935 73.6841 21.6722 72.6988 21.4385C71.7434 21.2048 70.8328 20.9858 69.9669 20.7813C67.8769 20.2555 66.0407 19.5691 64.4583 18.722C62.8758 17.8457 61.6368 16.7211 60.7411 15.3483C59.8752 13.9754 59.4423 12.2667 59.4423 10.222C59.4423 7.97287 59.9349 6.11806 60.9202 4.65757C61.9055 3.19709 63.2043 2.11634 64.8165 1.41531C66.4288 0.685066 68.1456 0.319946 69.9669 0.319946C71.3105 0.319946 72.5048 0.509808 73.5498 0.889532C74.6246 1.26926 75.7592 1.82424 76.9535 2.55448L78.7001 0.714276H80.0885V9.65242H78.7449C77.879 6.87751 76.7146 4.89125 75.2516 3.69366C73.7886 2.46685 71.9972 1.85345 69.8773 1.85345C68.5935 1.85345 67.4141 2.05792 66.3393 2.46685C65.2943 2.84658 64.4583 3.40156 63.8313 4.1318C63.2043 4.86204 62.8908 5.72373 62.8908 6.71685C62.8908 7.65156 63.1595 8.42562 63.6969 9.03902C64.2343 9.62321 64.936 10.0906 65.8018 10.4411C66.6677 10.7916 67.5933 11.0837 68.5785 11.3174C69.5638 11.551 70.5043 11.7701 71.4 11.9746C73.6692 12.5004 75.58 13.2306 77.1326 14.1653C78.6852 15.0708 79.8645 16.2684 80.6707 17.7581C81.4768 19.2478 81.8799 21.1172 81.8799 23.3663C81.8799 26.8131 80.9245 29.5004 79.0136 31.4282C77.1326 33.356 74.4156 34.3199 70.8626 34.3199Z" fill="white"/>
<path d="M101.421 34.3199C99.0926 34.3199 96.9131 33.8526 94.8828 32.9179C92.8823 31.9832 91.1208 30.7126 89.5981 29.106C88.1052 27.4995 86.9258 25.6739 86.06 23.6292C85.224 21.5846 84.806 19.4376 84.806 17.1885C84.806 14.9394 85.224 12.8071 86.06 10.7916C86.9258 8.74692 88.1052 6.95053 89.5981 5.40242C91.1208 3.8251 92.8823 2.58369 94.8828 1.67819C96.9131 0.772695 99.0926 0.319946 101.421 0.319946C103.75 0.319946 105.93 0.772695 107.96 1.67819C109.99 2.58369 111.752 3.8251 113.245 5.40242C114.768 6.95053 115.947 8.74692 116.783 10.7916C117.649 12.8071 118.082 14.9394 118.082 17.1885C118.082 19.4376 117.649 21.5846 116.783 23.6292C115.947 25.6739 114.768 27.4995 113.245 29.106C111.752 30.7126 109.99 31.9832 107.96 32.9179C105.93 33.8526 103.75 34.3199 101.421 34.3199ZM101.377 32.7864C102.899 32.7864 104.183 32.5674 105.228 32.1292C106.273 31.6619 107.109 30.8586 107.736 29.7194C108.393 28.5803 108.856 27.0029 109.125 24.9875C109.423 22.972 109.572 20.4016 109.572 17.2761C109.572 14.1507 109.423 11.5949 109.125 9.60861C108.856 7.59314 108.393 6.03043 107.736 4.92046C107.109 3.78129 106.273 2.99263 105.228 2.55448C104.183 2.08713 102.899 1.85345 101.377 1.85345C99.8838 1.85345 98.6149 2.08713 97.5699 2.55448C96.5548 2.99263 95.7337 3.76668 95.1067 4.87665C94.4797 5.98661 94.0169 7.54933 93.7183 9.56479C93.4496 11.551 93.3153 14.0923 93.3153 17.1885C93.3153 20.3724 93.4496 22.9866 93.7183 25.0313C94.0169 27.0467 94.4797 28.6241 95.1067 29.7632C95.7636 30.8732 96.5996 31.6619 97.6147 32.1292C98.6597 32.5674 99.9137 32.7864 101.377 32.7864Z" fill="white"/>
<path d="M131.842 18.7658V17.4514H135.559C137.201 17.4514 138.53 17.2469 139.545 16.838C140.56 16.3998 141.306 15.6112 141.784 14.472C142.262 13.3036 142.501 11.6241 142.501 9.43335C142.501 7.35946 142.307 5.79675 141.919 4.7452C141.53 3.69366 140.948 2.97802 140.172 2.5983C139.425 2.21857 138.485 2.02871 137.35 2.02871H120.78V0.714276H139.59C141.739 0.714276 143.665 1.094 145.367 1.85345C147.099 2.6129 148.472 3.66445 149.487 5.00809C150.502 6.32252 151.01 7.84142 151.01 9.56479C151.01 11.3758 150.383 12.9823 149.129 14.3844C147.905 15.7572 146.143 16.838 143.844 17.6266C141.545 18.3861 138.784 18.7658 135.559 18.7658H131.842ZM120.78 33.7504V32.4359H137.395V33.7504H120.78ZM125.034 33.0931V0.714276H132.11V33.0931H125.034Z" fill="white"/>
<path d="M169.386 33.0931L161.19 11.1421H161.011L160.742 9.52098L163.788 0.319946H164.952L177.134 33.0931H169.386ZM146.635 33.7504V32.4359H157.562V33.7504H146.635ZM154.651 24.8122V23.5416H170.058V24.8122H154.651ZM164.459 33.7504V32.4359H180V33.7504H164.459ZM150.576 33.0931L163.788 0.319946H164.952L162.623 7.28644L152.054 33.0931H150.576Z" fill="white"/>
</svg>
