<svg width="43" height="34" viewBox="0 0 43 34" fill="none" xmlns="http://www.w3.org/2000/svg">
<path d="M41.5952 17.0199C41.5952 25.8086 35.4533 32.6799 28.1677 32.6799C20.8821 32.6799 14.7402 25.8086 14.7402 17.0199C14.7402 8.23117 20.8821 1.35986 28.1677 1.35986C35.4533 1.35986 41.5952 8.23117 41.5952 17.0199Z" fill="#02021D" stroke="white" stroke-width="2"/>
<path d="M34.7251 17.0199C34.7251 25.8086 28.5832 32.6799 21.2976 32.6799C14.012 32.6799 7.87012 25.8086 7.87012 17.0199C7.87012 8.23117 14.012 1.35986 21.2976 1.35986C28.5832 1.35986 34.7251 8.23117 34.7251 17.0199Z" fill="#02021D" stroke="white" stroke-width="2"/>
<path d="M28.855 17.0199C28.855 26.2209 22.3956 33.6799 14.4275 33.6799C6.4594 33.6799 0 26.2209 0 17.0199C0 7.8188 6.4594 0.359863 14.4275 0.359863C22.3956 0.359863 28.855 7.8188 28.855 17.0199Z" fill="white"/>
</svg>
