<svg width="247" height="67" viewBox="0 0 247 67" fill="none" xmlns="http://www.w3.org/2000/svg">
<path d="M17.7546 51.66C12.1226 51.66 7.85459 50.076 4.95059 46.908C2.09059 43.696 0.660594 39.23 0.660594 33.51C0.660594 27.306 2.09059 22.642 4.95059 19.518C7.81059 16.35 11.8366 14.766 17.0286 14.766C21.8246 14.766 25.5866 16.108 28.3146 18.792C31.0866 21.476 32.4726 25.436 32.4726 30.672V34.038H10.8246C10.9126 38.438 11.7266 41.65 13.2666 43.674C14.8506 45.698 17.1166 46.71 20.0646 46.71C22.3086 46.71 24.1566 46.182 25.6086 45.126C27.0606 44.07 28.1606 42.772 28.9086 41.232C29.5246 41.408 30.0526 41.76 30.4926 42.288C30.9326 42.772 31.1526 43.388 31.1526 44.136C31.1526 45.28 30.6906 46.446 29.7666 47.634C28.8426 48.778 27.3906 49.746 25.4106 50.538C23.4746 51.286 20.9226 51.66 17.7546 51.66ZM22.3746 29.814C22.3746 26.47 21.9786 23.852 21.1866 21.96C20.3946 20.024 19.0526 19.056 17.1606 19.056C15.3126 19.056 13.8386 19.98 12.7386 21.828C11.6386 23.676 11.0446 26.338 10.9566 29.814H22.3746ZM50.4421 51.66C47.3621 51.66 44.8761 51.352 42.9841 50.736C41.0921 50.076 39.7061 49.196 38.8261 48.096C37.9461 46.952 37.5061 45.632 37.5061 44.136C37.5061 42.904 37.7921 41.936 38.3641 41.232C38.9361 40.484 39.6621 39.978 40.5421 39.714C41.4221 39.406 42.3461 39.252 43.3141 39.252C43.3141 41.98 43.9301 44.07 45.1621 45.522C46.4381 46.93 48.2861 47.634 50.7061 47.634C52.9501 47.634 54.5781 47.194 55.5901 46.314C56.6021 45.39 57.1081 44.268 57.1081 42.948C57.1081 41.98 56.8441 41.188 56.3161 40.572C55.7881 39.912 54.9301 39.296 53.7421 38.724C52.5981 38.152 51.0581 37.536 49.1221 36.876C46.6141 35.996 44.5241 35.072 42.8521 34.104C41.2241 33.136 39.9921 31.97 39.1561 30.606C38.3641 29.198 37.9681 27.438 37.9681 25.326C37.9681 21.806 39.2661 19.188 41.8621 17.472C44.4581 15.712 47.8901 14.832 52.1581 14.832C54.7981 14.832 56.9541 15.14 58.6261 15.756C60.2981 16.328 61.5081 17.098 62.2561 18.066C63.0481 19.034 63.4441 20.046 63.4441 21.102C63.4441 22.51 62.9381 23.61 61.9261 24.402C60.9141 25.15 59.3741 25.524 57.3061 25.524C57.3061 23.368 56.7341 21.696 55.5901 20.508C54.4901 19.32 53.0161 18.726 51.1681 18.726C49.4521 18.726 48.1321 19.1 47.2081 19.848C46.2841 20.552 45.8221 21.542 45.8221 22.818C45.8221 24.27 46.3941 25.392 47.5381 26.184C48.6821 26.976 50.7721 27.9 53.8081 28.956C56.1841 29.748 58.1861 30.628 59.8141 31.596C61.4861 32.52 62.7401 33.664 63.5761 35.028C64.4561 36.392 64.8961 38.13 64.8961 40.242C64.8961 43.806 63.6421 46.6 61.1341 48.624C58.6261 50.648 55.0621 51.66 50.4421 51.66ZM85.9795 66.114V62.616H87.8935C88.8615 62.616 89.7415 62.528 90.5335 62.352C91.3695 62.176 92.0295 61.78 92.5135 61.164C92.9975 60.592 93.2395 59.712 93.2395 58.524V54.234C93.2395 53.486 93.2395 52.628 93.2395 51.66C93.2835 50.736 93.3275 49.812 93.3715 48.888C93.4595 47.92 93.5255 47.106 93.5695 46.446H93.1735C92.2495 47.986 91.0175 49.24 89.4775 50.208C87.9375 51.176 85.9355 51.66 83.4715 51.66C79.2035 51.66 75.9035 50.186 73.5715 47.238C71.2835 44.29 70.1395 39.626 70.1395 33.246C70.1395 29.022 70.6675 25.568 71.7235 22.884C72.7795 20.156 74.3195 18.154 76.3435 16.878C78.4115 15.602 80.9635 14.964 83.9995 14.964C86.3755 14.964 88.3775 15.492 90.0055 16.548C91.6335 17.604 92.9535 19.012 93.9655 20.772H94.3615L95.6815 15.624H109.014V19.122H108.618C107.694 19.122 106.814 19.232 105.978 19.452C105.142 19.628 104.482 20.046 103.998 20.706C103.514 21.366 103.272 22.378 103.272 23.742V58.524C103.272 59.712 103.514 60.592 103.998 61.164C104.526 61.78 105.186 62.176 105.978 62.352C106.77 62.528 107.65 62.616 108.618 62.616H109.014V66.114H85.9795ZM86.4415 46.776C87.7615 46.776 88.8395 46.49 89.6755 45.918C90.5555 45.346 91.2595 44.488 91.7875 43.344C92.3155 42.2 92.6895 40.792 92.9095 39.12C93.1295 37.448 93.2395 35.534 93.2395 33.378C93.2395 30.342 93.0195 27.834 92.5795 25.854C92.1835 23.874 91.5015 22.4 90.5335 21.432C89.5655 20.42 88.2015 19.914 86.4415 19.914C84.9455 19.914 83.7575 20.42 82.8775 21.432C81.9975 22.4 81.3375 23.874 80.8975 25.854C80.5015 27.834 80.3035 30.32 80.3035 33.312C80.3035 37.668 80.7655 41.012 81.6895 43.344C82.6575 45.632 84.2415 46.776 86.4415 46.776ZM127.324 51.66C123.496 51.66 120.68 50.604 118.876 48.492C117.116 46.38 116.236 43.08 116.236 38.592V23.808C116.236 22.532 116.082 21.564 115.774 20.904C115.51 20.2 115.048 19.738 114.388 19.518C113.772 19.254 112.914 19.122 111.814 19.122H111.616V15.624H126.268V36.744C126.268 38.592 126.422 40.22 126.73 41.628C127.038 43.036 127.544 44.136 128.248 44.928C128.996 45.676 130.008 46.05 131.284 46.05C132.692 46.05 133.836 45.654 134.716 44.862C135.64 44.026 136.3 42.86 136.696 41.364C137.092 39.824 137.29 38.042 137.29 36.018V23.346C137.29 22.07 137.092 21.146 136.696 20.574C136.344 19.958 135.838 19.562 135.178 19.386C134.562 19.21 133.814 19.122 132.934 19.122H132.736V15.624H147.322V43.344C147.322 44.576 147.498 45.5 147.85 46.116C148.246 46.732 148.774 47.128 149.434 47.304C150.138 47.436 150.908 47.502 151.744 47.502H152.272V51H139.138L137.686 46.314H137.356C136.212 48.206 134.804 49.57 133.132 50.406C131.504 51.242 129.568 51.66 127.324 51.66ZM155.044 51V47.502H155.836C156.716 47.502 157.508 47.37 158.212 47.106C158.916 46.842 159.466 46.38 159.862 45.72C160.302 45.016 160.522 44.048 160.522 42.816V23.544C160.522 22.356 160.302 21.454 159.862 20.838C159.422 20.178 158.85 19.738 158.146 19.518C157.486 19.254 156.716 19.122 155.836 19.122H155.044V15.624H170.554V42.816C170.554 44.048 170.752 45.016 171.148 45.72C171.588 46.38 172.16 46.842 172.864 47.106C173.568 47.37 174.36 47.502 175.24 47.502H176.032V51H155.044ZM165.208 9.684C163.624 9.684 162.282 9.288 161.182 8.496C160.126 7.704 159.598 6.516 159.598 4.932C159.598 3.26 160.126 2.05 161.182 1.302C162.282 0.553998 163.624 0.179997 165.208 0.179997C166.748 0.179997 168.068 0.553998 169.168 1.302C170.312 2.05 170.884 3.26 170.884 4.932C170.884 6.516 170.312 7.704 169.168 8.496C168.068 9.288 166.748 9.684 165.208 9.684ZM178.445 51V47.502H178.709C179.721 47.502 180.579 47.392 181.283 47.172C182.031 46.952 182.603 46.512 182.999 45.852C183.439 45.148 183.659 44.114 183.659 42.75V23.61C183.659 22.29 183.461 21.322 183.065 20.706C182.713 20.046 182.185 19.628 181.481 19.452C180.777 19.232 179.941 19.122 178.973 19.122H178.775V15.624H191.975L193.295 21.96H193.625C194.285 20.376 195.033 19.056 195.869 18C196.705 16.944 197.717 16.152 198.905 15.624C200.137 15.096 201.655 14.832 203.459 14.832C205.967 14.832 207.793 15.382 208.937 16.482C210.081 17.538 210.653 18.924 210.653 20.64C210.653 22.664 209.927 24.16 208.475 25.128C207.067 26.096 205.043 26.58 202.403 26.58C202.403 25.348 202.315 24.336 202.139 23.544C201.963 22.752 201.655 22.158 201.215 21.762C200.775 21.322 200.137 21.102 199.301 21.102C198.289 21.102 197.431 21.476 196.727 22.224C196.067 22.972 195.517 23.94 195.077 25.128C194.637 26.316 194.307 27.614 194.087 29.022C193.867 30.386 193.757 31.706 193.757 32.982V43.08C193.757 44.356 193.955 45.324 194.351 45.984C194.747 46.6 195.297 47.018 196.001 47.238C196.705 47.414 197.497 47.502 198.377 47.502H200.489V51H178.445ZM231.868 51.66C226.236 51.66 221.968 50.076 219.064 46.908C216.204 43.696 214.774 39.23 214.774 33.51C214.774 27.306 216.204 22.642 219.064 19.518C221.924 16.35 225.95 14.766 231.142 14.766C235.938 14.766 239.7 16.108 242.428 18.792C245.2 21.476 246.586 25.436 246.586 30.672V34.038H224.938C225.026 38.438 225.84 41.65 227.38 43.674C228.964 45.698 231.23 46.71 234.178 46.71C236.422 46.71 238.27 46.182 239.722 45.126C241.174 44.07 242.274 42.772 243.022 41.232C243.638 41.408 244.166 41.76 244.606 42.288C245.046 42.772 245.266 43.388 245.266 44.136C245.266 45.28 244.804 46.446 243.88 47.634C242.956 48.778 241.504 49.746 239.524 50.538C237.588 51.286 235.036 51.66 231.868 51.66ZM236.488 29.814C236.488 26.47 236.092 23.852 235.3 21.96C234.508 20.024 233.166 19.056 231.274 19.056C229.426 19.056 227.952 19.98 226.852 21.828C225.752 23.676 225.158 26.338 225.07 29.814H236.488Z" fill="#75869C"/>
</svg>
