<svg width="112" height="40" viewBox="0 0 112 40" fill="none" xmlns="http://www.w3.org/2000/svg">
<path d="M0.491016 15C0.357682 15 0.251016 14.96 0.171016 14.88C0.0910157 14.7867 0.0510158 14.6733 0.0510158 14.54V1.48C0.0510158 1.33333 0.0910157 1.22 0.171016 1.14C0.251016 1.04667 0.357682 0.999999 0.491016 0.999999H1.45102C1.59768 0.999999 1.71102 1.04667 1.79102 1.14C1.88435 1.22 1.93102 1.33333 1.93102 1.48V7.04H8.89102V1.48C8.89102 1.33333 8.93102 1.22 9.01102 1.14C9.10435 1.04667 9.21768 0.999999 9.35102 0.999999H10.311C10.4577 0.999999 10.571 1.04667 10.651 1.14C10.7443 1.22 10.791 1.33333 10.791 1.48V14.54C10.791 14.6733 10.7443 14.7867 10.651 14.88C10.5577 14.96 10.4443 15 10.311 15H9.35102C9.21768 15 9.10435 14.96 9.01102 14.88C8.93102 14.7867 8.89102 14.6733 8.89102 14.54V8.78H1.93102V14.54C1.93102 14.6733 1.88435 14.7867 1.79102 14.88C1.69768 14.96 1.58435 15 1.45102 15H0.491016ZM19.5493 15.2C17.8293 15.2 16.5026 14.74 15.5693 13.82C14.636 12.8867 14.1693 11.48 14.1693 9.6V1.48C14.1693 1.33333 14.2093 1.22 14.2893 1.14C14.3693 1.04667 14.476 0.999999 14.6093 0.999999H15.5693C15.716 0.999999 15.8293 1.04667 15.9093 1.14C16.0026 1.22 16.0493 1.33333 16.0493 1.48V9.64C16.0493 10.9467 16.3493 11.92 16.9493 12.56C17.5626 13.2 18.4293 13.52 19.5493 13.52C20.656 13.52 21.5093 13.2 22.1093 12.56C22.7226 11.9067 23.0293 10.9333 23.0293 9.64V1.48C23.0293 1.33333 23.0693 1.22 23.1493 1.14C23.2293 1.04667 23.3426 0.999999 23.4893 0.999999H24.4493C24.5826 0.999999 24.6893 1.04667 24.7693 1.14C24.8626 1.22 24.9093 1.33333 24.9093 1.48V9.6C24.9093 11.48 24.4426 12.8867 23.5093 13.82C22.5893 14.74 21.2693 15.2 19.5493 15.2ZM28.7532 15C28.6199 15 28.5065 14.96 28.4132 14.88C28.3332 14.7867 28.2932 14.6733 28.2932 14.54V1.48C28.2932 1.33333 28.3332 1.22 28.4132 1.14C28.4932 1.04667 28.6065 0.999999 28.7532 0.999999H29.6932C29.9332 0.999999 30.0999 1.1 30.1932 1.3L34.4532 9.48L38.7532 1.3C38.8599 1.1 39.0199 0.999999 39.2332 0.999999H40.1732C40.3199 0.999999 40.4332 1.04667 40.5132 1.14C40.5932 1.22 40.6332 1.33333 40.6332 1.48V14.54C40.6332 14.6733 40.5865 14.7867 40.4932 14.88C40.4132 14.96 40.3065 15 40.1732 15H39.2532C39.1199 15 39.0132 14.96 38.9332 14.88C38.8532 14.7867 38.8132 14.6733 38.8132 14.54V4.6L35.3932 11.22C35.2599 11.5 35.0465 11.64 34.7532 11.64H34.1532C33.8732 11.64 33.6599 11.5 33.5132 11.22L30.1132 4.6V14.54C30.1132 14.6733 30.0665 14.7867 29.9732 14.88C29.8932 14.96 29.7865 15 29.6532 15H28.7532ZM43.1926 15C43.0859 15 42.9926 14.96 42.9126 14.88C42.8326 14.8 42.7926 14.7067 42.7926 14.6L42.8326 14.38L47.7926 1.44C47.8992 1.14667 48.1126 0.999999 48.4326 0.999999H49.7126C50.0326 0.999999 50.2459 1.14667 50.3526 1.44L55.3126 14.38L55.3526 14.6C55.3526 14.7067 55.3059 14.8 55.2126 14.88C55.1326 14.96 55.0392 15 54.9326 15H53.9926C53.8592 15 53.7459 14.9667 53.6526 14.9C53.5726 14.82 53.5192 14.74 53.4926 14.66L52.3726 11.78H45.7526L44.6526 14.66C44.5459 14.8867 44.3792 15 44.1526 15H43.1926ZM46.3326 10.12H51.8126L49.0726 2.94L46.3326 10.12ZM57.952 15C57.8186 15 57.712 14.96 57.632 14.88C57.552 14.7867 57.512 14.6733 57.512 14.54V1.48C57.512 1.33333 57.552 1.22 57.632 1.14C57.712 1.04667 57.8186 0.999999 57.952 0.999999H58.832C58.9653 0.999999 59.0653 1.02667 59.132 1.08C59.1986 1.13333 59.2653 1.2 59.332 1.28L66.032 11.6V1.48C66.032 1.33333 66.072 1.22 66.152 1.14C66.2453 1.04667 66.3586 0.999999 66.492 0.999999H67.392C67.5386 0.999999 67.652 1.04667 67.732 1.14C67.8253 1.22 67.872 1.33333 67.872 1.48V14.52C67.872 14.6533 67.8253 14.7667 67.732 14.86C67.652 14.9533 67.5453 15 67.412 15H66.512C66.2853 15 66.1253 14.9067 66.032 14.72L59.332 4.5V14.54C59.332 14.6733 59.2853 14.7867 59.192 14.88C59.112 14.96 59.0053 15 58.872 15H57.952ZM75.8391 15.2C74.7458 15.2 73.7925 15.0267 72.9791 14.68C72.1791 14.3333 71.5658 13.88 71.1391 13.32C70.7258 12.7467 70.5058 12.1333 70.4791 11.48C70.4791 11.3733 70.5191 11.28 70.5991 11.2C70.6791 11.12 70.7791 11.08 70.8991 11.08H71.8791C72.1191 11.08 72.2858 11.2133 72.3791 11.48C72.4991 12.04 72.8391 12.5267 73.3991 12.94C73.9725 13.34 74.7858 13.54 75.8391 13.54C76.9725 13.54 77.8191 13.34 78.3791 12.94C78.9391 12.54 79.2191 11.9867 79.2191 11.28C79.2191 10.8267 79.0791 10.4533 78.7991 10.16C78.5325 9.86667 78.1258 9.61333 77.5791 9.4C77.0458 9.17333 76.2391 8.9 75.1591 8.58C74.1325 8.28667 73.3125 7.97333 72.6991 7.64C72.0991 7.30667 71.6458 6.9 71.3391 6.42C71.0325 5.92667 70.8791 5.30667 70.8791 4.56C70.8791 3.84 71.0725 3.2 71.4591 2.64C71.8458 2.06667 72.4058 1.62 73.1391 1.3C73.8725 0.966666 74.7391 0.799999 75.7391 0.799999C76.7791 0.799999 77.6658 0.986666 78.3991 1.36C79.1458 1.72 79.7125 2.18 80.0991 2.74C80.4858 3.28667 80.6925 3.84 80.7191 4.4C80.7191 4.52 80.6791 4.62 80.5991 4.7C80.5191 4.78 80.4191 4.82 80.2991 4.82H79.2991C79.1925 4.82 79.0925 4.78667 78.9991 4.72C78.9058 4.65333 78.8391 4.55333 78.7991 4.42C78.7191 3.84667 78.3991 3.37333 77.8391 3C77.2791 2.62667 76.5791 2.44 75.7391 2.44C74.8325 2.44 74.1125 2.62 73.5791 2.98C73.0458 3.32667 72.7791 3.84667 72.7791 4.54C72.7791 5.00667 72.8991 5.38667 73.1391 5.68C73.3925 5.97333 73.7725 6.23333 74.2791 6.46C74.7991 6.68667 75.5525 6.94667 76.5391 7.24C77.6725 7.56 78.5591 7.88 79.1991 8.2C79.8525 8.52 80.3391 8.92 80.6591 9.4C80.9791 9.86667 81.1391 10.4733 81.1391 11.22C81.1391 12.4733 80.6591 13.4533 79.6991 14.16C78.7525 14.8533 77.4658 15.2 75.8391 15.2ZM93.7034 15.2C91.97 15.2 90.63 14.7467 89.6834 13.84C88.7367 12.92 88.2367 11.54 88.1834 9.7C88.17 9.3 88.1634 8.73333 88.1634 8C88.1634 7.26667 88.17 6.70667 88.1834 6.32C88.2367 4.50667 88.75 3.13333 89.7234 2.2C90.71 1.26667 92.0367 0.799999 93.7034 0.799999C95.37 0.799999 96.69 1.26667 97.6634 2.2C98.6367 3.13333 99.15 4.50667 99.2034 6.32C99.23 7.09333 99.2434 7.65333 99.2434 8C99.2434 8.33333 99.23 8.9 99.2034 9.7C99.15 11.54 98.65 12.92 97.7034 13.84C96.77 14.7467 95.4367 15.2 93.7034 15.2ZM93.7034 13.54C94.77 13.54 95.6234 13.22 96.2634 12.58C96.9034 11.9267 97.25 10.9333 97.3034 9.6C97.33 8.8 97.3434 8.26667 97.3434 8C97.3434 7.70667 97.33 7.17333 97.3034 6.4C97.25 5.06667 96.9034 4.07333 96.2634 3.42C95.6234 2.76667 94.77 2.44 93.7034 2.44C92.6367 2.44 91.7767 2.76667 91.1234 3.42C90.4834 4.07333 90.1434 5.06667 90.1034 6.4C90.09 6.78667 90.0834 7.32 90.0834 8C90.0834 8.66667 90.09 9.2 90.1034 9.6C90.1434 10.9333 90.4834 11.9267 91.1234 12.58C91.7634 13.22 92.6234 13.54 93.7034 13.54ZM102.639 15C102.506 15 102.399 14.96 102.319 14.88C102.239 14.7867 102.199 14.6733 102.199 14.54V1.48C102.199 1.33333 102.239 1.22 102.319 1.14C102.399 1.04667 102.506 0.999999 102.639 0.999999H110.759C110.906 0.999999 111.019 1.04667 111.099 1.14C111.193 1.22 111.239 1.33333 111.239 1.48V2.22C111.239 2.35333 111.193 2.46667 111.099 2.56C111.019 2.64 110.906 2.68 110.759 2.68H104.059V7.42H110.359C110.506 7.42 110.619 7.46667 110.699 7.56C110.793 7.64 110.839 7.74667 110.839 7.88V8.64C110.839 8.77333 110.793 8.88667 110.699 8.98C110.606 9.06 110.493 9.1 110.359 9.1H104.059V14.54C104.059 14.6733 104.013 14.7867 103.919 14.88C103.826 14.96 103.713 15 103.579 15H102.639ZM11.3211 39C11.1878 39 11.0811 38.96 11.0011 38.88C10.9211 38.7867 10.8811 38.6733 10.8811 38.54V25.48C10.8811 25.3333 10.9211 25.22 11.0011 25.14C11.0811 25.0467 11.1878 25 11.3211 25H12.2011C12.3344 25 12.4344 25.0267 12.5011 25.08C12.5678 25.1333 12.6344 25.2 12.7011 25.28L19.4011 35.6V25.48C19.4011 25.3333 19.4411 25.22 19.5211 25.14C19.6144 25.0467 19.7278 25 19.8611 25H20.7611C20.9078 25 21.0211 25.0467 21.1011 25.14C21.1944 25.22 21.2411 25.3333 21.2411 25.48V38.52C21.2411 38.6533 21.1944 38.7667 21.1011 38.86C21.0211 38.9533 20.9144 39 20.7811 39H19.8811C19.6544 39 19.4944 38.9067 19.4011 38.72L12.7011 28.5V38.54C12.7011 38.6733 12.6544 38.7867 12.5611 38.88C12.4811 38.96 12.3744 39 12.2411 39H11.3211ZM25.1883 39C25.0549 39 24.9483 38.96 24.8683 38.88C24.7883 38.7867 24.7483 38.6733 24.7483 38.54V25.48C24.7483 25.3333 24.7883 25.22 24.8683 25.14C24.9483 25.0467 25.0549 25 25.1883 25H33.4083C33.5549 25 33.6683 25.0467 33.7483 25.14C33.8416 25.22 33.8883 25.3333 33.8883 25.48V26.2C33.8883 26.3333 33.8416 26.44 33.7483 26.52C33.6683 26.6 33.5549 26.64 33.4083 26.64H26.5883V31.1H32.9683C33.1149 31.1 33.2283 31.1467 33.3083 31.24C33.4016 31.32 33.4483 31.4333 33.4483 31.58V32.26C33.4483 32.3933 33.4016 32.5067 33.3083 32.6C33.2283 32.68 33.1149 32.72 32.9683 32.72H26.5883V37.34H33.5683C33.7149 37.34 33.8283 37.3867 33.9083 37.48C34.0016 37.56 34.0483 37.6733 34.0483 37.82V38.54C34.0483 38.6733 34.0016 38.7867 33.9083 38.88C33.8149 38.96 33.7016 39 33.5683 39H25.1883ZM39.2177 39C38.8843 39 38.6777 38.8267 38.5977 38.48L36.0177 25.62L35.9777 25.4C35.9777 25.2933 36.0177 25.2 36.0977 25.12C36.1777 25.04 36.271 25 36.3777 25H37.3577C37.6377 25 37.7977 25.1133 37.8377 25.34L39.8977 35.78L42.1177 28.58C42.1977 28.26 42.4043 28.1 42.7377 28.1H43.4377C43.7577 28.1 43.971 28.26 44.0777 28.58L46.2777 35.78L48.3377 25.34C48.3777 25.1133 48.5443 25 48.8377 25H49.7977C49.9043 25 49.9977 25.04 50.0777 25.12C50.1577 25.2 50.1977 25.2933 50.1977 25.4C50.1977 25.48 50.191 25.5533 50.1777 25.62L47.5777 38.48C47.511 38.8267 47.3043 39 46.9577 39H46.2377C45.9043 39 45.6843 38.8333 45.5777 38.5L43.0977 30.8L40.5977 38.5C40.5043 38.8333 40.291 39 39.9577 39H39.2177ZM61.0186 39C60.8853 39 60.7719 38.96 60.6786 38.88C60.5986 38.7867 60.5586 38.6733 60.5586 38.54V33.8L55.7386 25.66C55.6986 25.58 55.6786 25.4933 55.6786 25.4C55.6786 25.2933 55.7186 25.2 55.7986 25.12C55.8786 25.04 55.9719 25 56.0786 25H57.0386C57.2786 25 57.4519 25.1133 57.5586 25.34L61.5186 31.88L65.4586 25.34C65.5919 25.1133 65.7653 25 65.9786 25H66.9386C67.0453 25 67.1386 25.04 67.2186 25.12C67.3119 25.2 67.3586 25.2933 67.3586 25.4C67.3586 25.4667 67.3319 25.5533 67.2786 25.66L62.4586 33.8V38.54C62.4586 38.6733 62.4119 38.7867 62.3186 38.88C62.2386 38.96 62.1253 39 61.9786 39H61.0186ZM74.1038 39.2C72.3704 39.2 71.0304 38.7467 70.0838 37.84C69.1371 36.92 68.6371 35.54 68.5838 33.7C68.5704 33.3 68.5638 32.7333 68.5638 32C68.5638 31.2667 68.5704 30.7067 68.5838 30.32C68.6371 28.5067 69.1504 27.1333 70.1238 26.2C71.1104 25.2667 72.4371 24.8 74.1038 24.8C75.7704 24.8 77.0904 25.2667 78.0638 26.2C79.0371 27.1333 79.5504 28.5067 79.6038 30.32C79.6304 31.0933 79.6438 31.6533 79.6438 32C79.6438 32.3333 79.6304 32.9 79.6038 33.7C79.5504 35.54 79.0504 36.92 78.1038 37.84C77.1704 38.7467 75.8371 39.2 74.1038 39.2ZM74.1038 37.54C75.1704 37.54 76.0238 37.22 76.6638 36.58C77.3038 35.9267 77.6504 34.9333 77.7038 33.6C77.7304 32.8 77.7438 32.2667 77.7438 32C77.7438 31.7067 77.7304 31.1733 77.7038 30.4C77.6504 29.0667 77.3038 28.0733 76.6638 27.42C76.0238 26.7667 75.1704 26.44 74.1038 26.44C73.0371 26.44 72.1771 26.7667 71.5238 27.42C70.8838 28.0733 70.5438 29.0667 70.5038 30.4C70.4904 30.7867 70.4838 31.32 70.4838 32C70.4838 32.6667 70.4904 33.2 70.5038 33.6C70.5438 34.9333 70.8838 35.9267 71.5238 36.58C72.1638 37.22 73.0238 37.54 74.1038 37.54ZM83.0398 39C82.9065 39 82.7998 38.96 82.7198 38.88C82.6398 38.7867 82.5998 38.6733 82.5998 38.54V25.48C82.5998 25.3333 82.6398 25.22 82.7198 25.14C82.7998 25.0467 82.9065 25 83.0398 25H87.9198C89.4398 25 90.6265 25.36 91.4798 26.08C92.3465 26.7867 92.7798 27.82 92.7798 29.18C92.7798 30.1933 92.5265 31.0267 92.0198 31.68C91.5132 32.3333 90.8065 32.7867 89.8998 33.04L92.9798 38.38C93.0198 38.46 93.0398 38.5333 93.0398 38.6C93.0398 38.7067 92.9998 38.8 92.9198 38.88C92.8398 38.96 92.7465 39 92.6398 39H91.7598C91.5598 39 91.3998 38.9533 91.2798 38.86C91.1732 38.7667 91.0732 38.6333 90.9798 38.46L88.0398 33.34H84.4798V38.54C84.4798 38.6733 84.4332 38.7867 84.3398 38.88C84.2465 38.96 84.1332 39 83.9998 39H83.0398ZM87.8398 31.7C89.8532 31.7 90.8598 30.8533 90.8598 29.16C90.8598 27.4667 89.8532 26.62 87.8398 26.62H84.4798V31.7H87.8398ZM96.1258 39C95.9924 39 95.8858 38.96 95.8058 38.88C95.7258 38.7867 95.6858 38.6733 95.6858 38.54V25.48C95.6858 25.3333 95.7258 25.22 95.8058 25.14C95.8858 25.0467 95.9924 25 96.1258 25H97.0658C97.2124 25 97.3258 25.0467 97.4058 25.14C97.4991 25.22 97.5458 25.3333 97.5458 25.48V30.46L102.966 25.32C103.179 25.1067 103.439 25 103.746 25H104.746C104.852 25 104.946 25.04 105.026 25.12C105.106 25.2 105.146 25.2933 105.146 25.4C105.146 25.5067 105.112 25.5933 105.046 25.66L98.8058 31.7L105.466 38.32C105.532 38.4 105.566 38.4933 105.566 38.6C105.566 38.7067 105.526 38.8 105.446 38.88C105.366 38.96 105.272 39 105.166 39H104.126C103.939 39 103.792 38.9733 103.686 38.92C103.579 38.8533 103.466 38.7733 103.346 38.68L97.5458 33.02V38.54C97.5458 38.6733 97.4991 38.7867 97.4058 38.88C97.3124 38.96 97.1991 39 97.0658 39H96.1258Z" fill="#75869C"/>
</svg>
