<svg width="38" height="32" viewBox="0 0 38 32" fill="none" xmlns="http://www.w3.org/2000/svg">
<path fill-rule="evenodd" clip-rule="evenodd" d="M9.03554 17.5996L14.418 22.9672L10.9894 26.3996L5.60699 21.032L9.03554 17.5996ZM37.2571 8.29862L35.8808 9.69909C35.6385 9.93941 35.3161 10.081 34.9759 10.0965H33.5808V11.5159C33.5709 12.2257 33.0056 12.8015 32.2988 12.8218H30.8848V14.2411C30.8567 14.9431 30.3015 15.5085 29.6028 15.547H28.1888V16.9664C28.1691 17.6792 27.5981 18.2524 26.8879 18.2722H25.4928V19.6916C25.4647 20.3935 24.9096 20.959 24.2108 20.9974H22.7969V22.4358C22.7861 22.7729 22.6439 23.0923 22.4009 23.3253L21.9862 23.7605L21.0247 24.7257L15.0294 30.8386C13.4597 32.3871 10.9433 32.3871 9.37353 30.8386L1.13478 22.5682C-0.378261 20.9805 -0.378261 18.4785 1.13478 16.8907L4.90538 13.1056C6.02841 11.9543 7.72866 11.5891 9.22271 12.1783C9.53246 11.3137 10.1324 10.5844 10.9195 10.1154L27.0953 0.652836C28.6309 -0.353727 30.6518 -0.182069 31.9971 1.06919L37.2382 6.36825C37.4963 6.6214 37.6434 6.9673 37.6469 7.32951C37.6505 7.69172 37.5102 8.04044 37.2571 8.29862ZM17.622 24.2477L9.92906 16.304L8.47005 14.8085C8.22058 14.5475 7.87911 14.4004 7.52265 14.4004C7.16618 14.4004 6.82471 14.5475 6.57524 14.8085L2.78561 18.6929C2.27546 19.2348 2.27546 20.0934 2.78561 20.6352L10.9902 29.2005C11.5146 29.7337 12.3605 29.7337 12.885 29.2005L17.622 24.2477ZM34.443 7.16691L30.1979 2.81454C29.7851 2.37228 29.1218 2.27212 28.5966 2.57274L12.6215 11.9843C12.2823 12.1779 12.0597 12.5254 12.0257 12.9143C11.9728 13.327 12.1177 13.7406 12.4167 14.0303L20.0319 21.6004V19.48C20.069 18.7871 20.623 18.2337 21.3166 18.1966H22.6944V16.783C22.7222 16.0932 23.2704 15.5374 23.9605 15.4996H25.3569V14.1047C25.3371 13.7187 25.4899 13.3439 25.774 13.0816C26.0582 12.8193 26.4442 12.6967 26.8278 12.7469H28.2243V11.3333C28.2613 10.6404 28.8154 10.0869 29.509 10.0499H30.8868V8.6549C30.8286 8.26188 30.9533 7.86384 31.2253 7.57401C31.4973 7.28417 31.8868 7.13426 32.2832 7.16691H34.443Z" fill="#700AAB"/>
</svg>
