<svg width="30" height="40" viewBox="0 0 30 40" fill="none" xmlns="http://www.w3.org/2000/svg">
<path fill-rule="evenodd" clip-rule="evenodd" d="M29.86 14.58L28.32 11.52L29.84 8.70002C29.9508 8.48364 30.0058 8.24303 30 8.00002C30 5.69926 28.1407 3.83103 25.84 3.82002H12C11.8325 1.65939 10.0271 -0.00646377 7.86 1.88555e-05H4.16C1.85926 0.0110273 -2.63358e-05 1.87926 2.79777e-10 4.18002V35.82C-2.63358e-05 38.1208 1.85926 39.989 4.16 40H25.84C28.1407 39.989 30 38.1208 30 35.82C29.9983 35.4637 29.8626 35.121 29.62 34.86L28.44 33.58L29.86 30.72C30.0388 30.326 30.0388 29.874 29.86 29.48L28.32 26.38L29.86 23.28C30.0397 22.8792 30.0397 22.4208 29.86 22.02L28.32 18.94L29.86 15.84C30.0397 15.4392 30.0397 14.9808 29.86 14.58ZM4.16 2.79982H7.86C8.62215 2.79982 9.24 3.41767 9.24 4.17982V29.6798C7.30949 28.2944 4.71051 28.2944 2.78 29.6798V4.17982C2.78 3.81383 2.92539 3.46282 3.18419 3.20402C3.44299 2.94522 3.794 2.79982 4.16 2.79982ZM3.14 34.32C3.14003 33.1534 3.8439 32.102 4.92254 31.6574C6.00118 31.2128 7.24147 31.4629 8.06355 32.2907C8.88563 33.1186 9.12707 34.3606 8.67499 35.4361C8.22291 36.5116 7.16664 37.2081 6 37.2C5.238 37.2 4.5075 36.896 3.97057 36.3553C3.43364 35.8146 3.13467 35.082 3.14 34.32ZM25.52 12.12L27.06 15.22L25.52 18.3C25.3403 18.7008 25.3403 19.1592 25.52 19.56L27.06 22.66L25.52 25.76C25.3412 26.154 25.3412 26.606 25.52 27L27.06 30.1L25.52 33.2C25.2592 33.718 25.3556 34.3444 25.76 34.76L27.14 36.28C26.9503 36.8349 26.4264 37.2057 25.84 37.2H12V6.64002H25.82C26.4722 6.65082 27.0331 7.10452 27.18 7.74002L25.52 10.82C25.3195 11.2302 25.3195 11.7099 25.52 12.12Z" fill="#700AAB"/>
</svg>
