<svg width="282" height="40" viewBox="0 0 282 40" fill="none" xmlns="http://www.w3.org/2000/svg">
<path d="M68.5295 28.432V37H69.6095V29.872H69.6335L72.3095 37H73.2815L75.9575 29.872H75.9815V37H77.0615V28.432H75.5015L72.7895 35.632L70.0895 28.432H68.5295ZM79.5346 33.904C79.5346 33.528 79.5826 33.196 79.6786 32.908C79.7826 32.612 79.9226 32.364 80.0986 32.164C80.2746 31.964 80.4786 31.812 80.7106 31.708C80.9506 31.604 81.2026 31.552 81.4666 31.552C81.7306 31.552 81.9786 31.604 82.2106 31.708C82.4506 31.812 82.6586 31.964 82.8346 32.164C83.0106 32.364 83.1466 32.612 83.2426 32.908C83.3466 33.196 83.3986 33.528 83.3986 33.904C83.3986 34.28 83.3466 34.616 83.2426 34.912C83.1466 35.2 83.0106 35.444 82.8346 35.644C82.6586 35.836 82.4506 35.984 82.2106 36.088C81.9786 36.192 81.7306 36.244 81.4666 36.244C81.2026 36.244 80.9506 36.192 80.7106 36.088C80.4786 35.984 80.2746 35.836 80.0986 35.644C79.9226 35.444 79.7826 35.2 79.6786 34.912C79.5826 34.616 79.5346 34.28 79.5346 33.904ZM78.4546 33.904C78.4546 34.36 78.5186 34.784 78.6466 35.176C78.7746 35.568 78.9666 35.912 79.2226 36.208C79.4786 36.496 79.7946 36.724 80.1706 36.892C80.5466 37.052 80.9786 37.132 81.4666 37.132C81.9626 37.132 82.3946 37.052 82.7626 36.892C83.1386 36.724 83.4546 36.496 83.7106 36.208C83.9666 35.912 84.1586 35.568 84.2866 35.176C84.4146 34.784 84.4786 34.36 84.4786 33.904C84.4786 33.448 84.4146 33.024 84.2866 32.632C84.1586 32.232 83.9666 31.888 83.7106 31.6C83.4546 31.304 83.1386 31.072 82.7626 30.904C82.3946 30.736 81.9626 30.652 81.4666 30.652C80.9786 30.652 80.5466 30.736 80.1706 30.904C79.7946 31.072 79.4786 31.304 79.2226 31.6C78.9666 31.888 78.7746 32.232 78.6466 32.632C78.5186 33.024 78.4546 33.448 78.4546 33.904ZM87.0972 30.796V28.936H86.0772V30.796H85.0212V31.696H86.0772V35.644C86.0772 35.932 86.1052 36.164 86.1612 36.34C86.2172 36.516 86.3012 36.652 86.4132 36.748C86.5332 36.844 86.6852 36.912 86.8692 36.952C87.0612 36.984 87.2892 37 87.5532 37H88.3332V36.1H87.8652C87.7052 36.1 87.5732 36.096 87.4692 36.088C87.3732 36.072 87.2972 36.044 87.2412 36.004C87.1852 35.964 87.1452 35.908 87.1212 35.836C87.1052 35.764 87.0972 35.668 87.0972 35.548V31.696H88.3332V30.796H87.0972ZM90.5464 29.68V28.432H89.5264V29.68H90.5464ZM89.5264 30.796V37H90.5464V30.796H89.5264ZM94.9226 37L97.1906 30.796H96.1226L94.4306 35.968H94.4066L92.6666 30.796H91.5266L93.8306 37H94.9226ZM103.623 36.976C103.447 37.08 103.203 37.132 102.891 37.132C102.627 37.132 102.415 37.06 102.255 36.916C102.103 36.764 102.027 36.52 102.027 36.184C101.747 36.52 101.419 36.764 101.043 36.916C100.675 37.06 100.275 37.132 99.8426 37.132C99.5626 37.132 99.2946 37.1 99.0386 37.036C98.7906 36.972 98.5746 36.872 98.3906 36.736C98.2066 36.6 98.0586 36.424 97.9466 36.208C97.8426 35.984 97.7906 35.716 97.7906 35.404C97.7906 35.052 97.8506 34.764 97.9706 34.54C98.0906 34.316 98.2466 34.136 98.4386 34C98.6386 33.856 98.8626 33.748 99.1106 33.676C99.3666 33.604 99.6266 33.544 99.8906 33.496C100.171 33.44 100.435 33.4 100.683 33.376C100.939 33.344 101.163 33.304 101.355 33.256C101.547 33.2 101.699 33.124 101.811 33.028C101.923 32.924 101.979 32.776 101.979 32.584C101.979 32.36 101.935 32.18 101.847 32.044C101.767 31.908 101.659 31.804 101.523 31.732C101.395 31.66 101.247 31.612 101.079 31.588C100.919 31.564 100.759 31.552 100.599 31.552C100.167 31.552 99.8066 31.636 99.5186 31.804C99.2306 31.964 99.0746 32.272 99.0506 32.728H98.0306C98.0466 32.344 98.1266 32.02 98.2706 31.756C98.4146 31.492 98.6066 31.28 98.8466 31.12C99.0866 30.952 99.3586 30.832 99.6626 30.76C99.9746 30.688 100.307 30.652 100.659 30.652C100.939 30.652 101.215 30.672 101.487 30.712C101.767 30.752 102.019 30.836 102.243 30.964C102.467 31.084 102.647 31.256 102.783 31.48C102.919 31.704 102.987 31.996 102.987 32.356V35.548C102.987 35.788 102.999 35.964 103.023 36.076C103.055 36.188 103.151 36.244 103.311 36.244C103.399 36.244 103.503 36.224 103.623 36.184V36.976ZM101.967 33.796C101.839 33.892 101.671 33.964 101.463 34.012C101.255 34.052 101.035 34.088 100.803 34.12C100.579 34.144 100.351 34.176 100.119 34.216C99.8866 34.248 99.6786 34.304 99.4946 34.384C99.3106 34.464 99.1586 34.58 99.0386 34.732C98.9266 34.876 98.8706 35.076 98.8706 35.332C98.8706 35.5 98.9026 35.644 98.9666 35.764C99.0386 35.876 99.1266 35.968 99.2306 36.04C99.3426 36.112 99.4706 36.164 99.6146 36.196C99.7586 36.228 99.9106 36.244 100.071 36.244C100.407 36.244 100.695 36.2 100.935 36.112C101.175 36.016 101.371 35.9 101.523 35.764C101.675 35.62 101.787 35.468 101.859 35.308C101.931 35.14 101.967 34.984 101.967 34.84V33.796ZM105.988 30.796V28.936H104.968V30.796H103.912V31.696H104.968V35.644C104.968 35.932 104.996 36.164 105.052 36.34C105.108 36.516 105.192 36.652 105.304 36.748C105.424 36.844 105.576 36.912 105.76 36.952C105.952 36.984 106.18 37 106.444 37H107.224V36.1H106.756C106.596 36.1 106.464 36.096 106.36 36.088C106.264 36.072 106.188 36.044 106.132 36.004C106.076 35.964 106.036 35.908 106.012 35.836C105.996 35.764 105.988 35.668 105.988 35.548V31.696H107.224V30.796H105.988ZM109.437 29.68V28.432H108.417V29.68H109.437ZM108.417 30.796V37H109.437V30.796H108.417ZM111.761 33.904C111.761 33.528 111.809 33.196 111.905 32.908C112.009 32.612 112.149 32.364 112.325 32.164C112.501 31.964 112.705 31.812 112.937 31.708C113.177 31.604 113.429 31.552 113.693 31.552C113.957 31.552 114.205 31.604 114.437 31.708C114.677 31.812 114.885 31.964 115.061 32.164C115.237 32.364 115.373 32.612 115.469 32.908C115.573 33.196 115.625 33.528 115.625 33.904C115.625 34.28 115.573 34.616 115.469 34.912C115.373 35.2 115.237 35.444 115.061 35.644C114.885 35.836 114.677 35.984 114.437 36.088C114.205 36.192 113.957 36.244 113.693 36.244C113.429 36.244 113.177 36.192 112.937 36.088C112.705 35.984 112.501 35.836 112.325 35.644C112.149 35.444 112.009 35.2 111.905 34.912C111.809 34.616 111.761 34.28 111.761 33.904ZM110.681 33.904C110.681 34.36 110.745 34.784 110.873 35.176C111.001 35.568 111.193 35.912 111.449 36.208C111.705 36.496 112.021 36.724 112.397 36.892C112.773 37.052 113.205 37.132 113.693 37.132C114.189 37.132 114.621 37.052 114.989 36.892C115.365 36.724 115.681 36.496 115.937 36.208C116.193 35.912 116.385 35.568 116.513 35.176C116.641 34.784 116.705 34.36 116.705 33.904C116.705 33.448 116.641 33.024 116.513 32.632C116.385 32.232 116.193 31.888 115.937 31.6C115.681 31.304 115.365 31.072 114.989 30.904C114.621 30.736 114.189 30.652 113.693 30.652C113.205 30.652 112.773 30.736 112.397 30.904C112.021 31.072 111.705 31.304 111.449 31.6C111.193 31.888 111.001 32.232 110.873 32.632C110.745 33.024 110.681 33.448 110.681 33.904ZM117.908 30.796V37H118.928V33.496C118.928 33.216 118.964 32.96 119.036 32.728C119.116 32.488 119.232 32.28 119.384 32.104C119.536 31.928 119.724 31.792 119.948 31.696C120.18 31.6 120.452 31.552 120.764 31.552C121.156 31.552 121.464 31.664 121.688 31.888C121.912 32.112 122.024 32.416 122.024 32.8V37H123.044V32.92C123.044 32.584 123.008 32.28 122.936 32.008C122.872 31.728 122.756 31.488 122.588 31.288C122.42 31.088 122.2 30.932 121.928 30.82C121.656 30.708 121.316 30.652 120.908 30.652C119.988 30.652 119.316 31.028 118.892 31.78H118.868V30.796H117.908ZM130.072 36.976C129.896 37.08 129.652 37.132 129.34 37.132C129.076 37.132 128.864 37.06 128.704 36.916C128.552 36.764 128.476 36.52 128.476 36.184C128.196 36.52 127.868 36.764 127.492 36.916C127.124 37.06 126.724 37.132 126.292 37.132C126.012 37.132 125.744 37.1 125.488 37.036C125.24 36.972 125.024 36.872 124.84 36.736C124.656 36.6 124.508 36.424 124.396 36.208C124.292 35.984 124.24 35.716 124.24 35.404C124.24 35.052 124.3 34.764 124.42 34.54C124.54 34.316 124.696 34.136 124.888 34C125.088 33.856 125.312 33.748 125.56 33.676C125.816 33.604 126.076 33.544 126.34 33.496C126.62 33.44 126.884 33.4 127.132 33.376C127.388 33.344 127.612 33.304 127.804 33.256C127.996 33.2 128.148 33.124 128.26 33.028C128.372 32.924 128.428 32.776 128.428 32.584C128.428 32.36 128.384 32.18 128.296 32.044C128.216 31.908 128.108 31.804 127.972 31.732C127.844 31.66 127.696 31.612 127.528 31.588C127.368 31.564 127.208 31.552 127.048 31.552C126.616 31.552 126.256 31.636 125.968 31.804C125.68 31.964 125.524 32.272 125.5 32.728H124.48C124.496 32.344 124.576 32.02 124.72 31.756C124.864 31.492 125.056 31.28 125.296 31.12C125.536 30.952 125.808 30.832 126.112 30.76C126.424 30.688 126.756 30.652 127.108 30.652C127.388 30.652 127.664 30.672 127.936 30.712C128.216 30.752 128.468 30.836 128.692 30.964C128.916 31.084 129.096 31.256 129.232 31.48C129.368 31.704 129.436 31.996 129.436 32.356V35.548C129.436 35.788 129.448 35.964 129.472 36.076C129.504 36.188 129.6 36.244 129.76 36.244C129.848 36.244 129.952 36.224 130.072 36.184V36.976ZM128.416 33.796C128.288 33.892 128.12 33.964 127.912 34.012C127.704 34.052 127.484 34.088 127.252 34.12C127.028 34.144 126.8 34.176 126.568 34.216C126.336 34.248 126.128 34.304 125.944 34.384C125.76 34.464 125.608 34.58 125.488 34.732C125.376 34.876 125.32 35.076 125.32 35.332C125.32 35.5 125.352 35.644 125.416 35.764C125.488 35.876 125.576 35.968 125.68 36.04C125.792 36.112 125.92 36.164 126.064 36.196C126.208 36.228 126.36 36.244 126.52 36.244C126.856 36.244 127.144 36.2 127.384 36.112C127.624 36.016 127.82 35.9 127.972 35.764C128.124 35.62 128.236 35.468 128.308 35.308C128.38 35.14 128.416 34.984 128.416 34.84V33.796ZM131.081 28.432V37H132.101V28.432H131.081ZM137.645 35.044H136.625C136.641 35.428 136.721 35.756 136.865 36.028C137.009 36.292 137.201 36.508 137.441 36.676C137.681 36.836 137.957 36.952 138.269 37.024C138.581 37.096 138.909 37.132 139.253 37.132C139.565 37.132 139.877 37.1 140.189 37.036C140.509 36.98 140.793 36.876 141.041 36.724C141.297 36.572 141.501 36.372 141.653 36.124C141.813 35.876 141.893 35.564 141.893 35.188C141.893 34.892 141.833 34.644 141.713 34.444C141.601 34.244 141.449 34.08 141.257 33.952C141.073 33.816 140.857 33.708 140.609 33.628C140.369 33.548 140.121 33.48 139.865 33.424C139.625 33.368 139.385 33.316 139.145 33.268C138.905 33.212 138.689 33.148 138.497 33.076C138.305 32.996 138.145 32.9 138.017 32.788C137.897 32.668 137.837 32.52 137.837 32.344C137.837 32.184 137.877 32.056 137.957 31.96C138.037 31.856 138.141 31.776 138.269 31.72C138.397 31.656 138.537 31.612 138.689 31.588C138.849 31.564 139.005 31.552 139.157 31.552C139.325 31.552 139.489 31.572 139.649 31.612C139.817 31.644 139.969 31.7 140.105 31.78C140.241 31.86 140.353 31.968 140.441 32.104C140.529 32.232 140.581 32.396 140.597 32.596H141.617C141.593 32.22 141.513 31.908 141.377 31.66C141.241 31.404 141.057 31.204 140.825 31.06C140.601 30.908 140.341 30.804 140.045 30.748C139.749 30.684 139.425 30.652 139.073 30.652C138.801 30.652 138.525 30.688 138.245 30.76C137.973 30.824 137.725 30.928 137.501 31.072C137.285 31.208 137.105 31.388 136.961 31.612C136.825 31.836 136.757 32.104 136.757 32.416C136.757 32.816 136.857 33.128 137.057 33.352C137.257 33.576 137.505 33.752 137.801 33.88C138.105 34 138.433 34.096 138.785 34.168C139.137 34.232 139.461 34.308 139.757 34.396C140.061 34.476 140.313 34.584 140.513 34.72C140.713 34.856 140.813 35.056 140.813 35.32C140.813 35.512 140.765 35.672 140.669 35.8C140.573 35.92 140.449 36.012 140.297 36.076C140.153 36.14 139.993 36.184 139.817 36.208C139.641 36.232 139.473 36.244 139.313 36.244C139.105 36.244 138.901 36.224 138.701 36.184C138.509 36.144 138.333 36.08 138.173 35.992C138.021 35.896 137.897 35.772 137.801 35.62C137.705 35.46 137.653 35.268 137.645 35.044ZM143.765 33.904C143.765 33.528 143.813 33.196 143.909 32.908C144.013 32.612 144.153 32.364 144.329 32.164C144.505 31.964 144.709 31.812 144.941 31.708C145.181 31.604 145.433 31.552 145.697 31.552C145.961 31.552 146.209 31.604 146.441 31.708C146.681 31.812 146.889 31.964 147.065 32.164C147.241 32.364 147.377 32.612 147.473 32.908C147.577 33.196 147.629 33.528 147.629 33.904C147.629 34.28 147.577 34.616 147.473 34.912C147.377 35.2 147.241 35.444 147.065 35.644C146.889 35.836 146.681 35.984 146.441 36.088C146.209 36.192 145.961 36.244 145.697 36.244C145.433 36.244 145.181 36.192 144.941 36.088C144.709 35.984 144.505 35.836 144.329 35.644C144.153 35.444 144.013 35.2 143.909 34.912C143.813 34.616 143.765 34.28 143.765 33.904ZM142.685 33.904C142.685 34.36 142.749 34.784 142.877 35.176C143.005 35.568 143.197 35.912 143.453 36.208C143.709 36.496 144.025 36.724 144.401 36.892C144.777 37.052 145.209 37.132 145.697 37.132C146.193 37.132 146.625 37.052 146.993 36.892C147.369 36.724 147.685 36.496 147.941 36.208C148.197 35.912 148.389 35.568 148.517 35.176C148.645 34.784 148.709 34.36 148.709 33.904C148.709 33.448 148.645 33.024 148.517 32.632C148.389 32.232 148.197 31.888 147.941 31.6C147.685 31.304 147.369 31.072 146.993 30.904C146.625 30.736 146.193 30.652 145.697 30.652C145.209 30.652 144.777 30.736 144.401 30.904C144.025 31.072 143.709 31.304 143.453 31.6C143.197 31.888 143.005 32.232 142.877 32.632C142.749 33.024 142.685 33.448 142.685 33.904ZM150.332 31.696V37H151.352V31.696H152.552V30.796H151.352V29.932C151.352 29.66 151.42 29.476 151.556 29.38C151.692 29.284 151.884 29.236 152.132 29.236C152.22 29.236 152.316 29.244 152.42 29.26C152.524 29.268 152.62 29.288 152.708 29.32V28.432C152.612 28.4 152.5 28.376 152.372 28.36C152.252 28.344 152.144 28.336 152.048 28.336C151.488 28.336 151.06 28.468 150.764 28.732C150.476 28.988 150.332 29.368 150.332 29.872V30.796H149.288V31.696H150.332ZM154.878 30.796V28.936H153.858V30.796H152.802V31.696H153.858V35.644C153.858 35.932 153.886 36.164 153.942 36.34C153.998 36.516 154.082 36.652 154.194 36.748C154.314 36.844 154.466 36.912 154.65 36.952C154.842 36.984 155.07 37 155.334 37H156.114V36.1H155.646C155.486 36.1 155.354 36.096 155.25 36.088C155.154 36.072 155.078 36.044 155.022 36.004C154.966 35.964 154.926 35.908 154.902 35.836C154.886 35.764 154.878 35.668 154.878 35.548V31.696H156.114V30.796H154.878ZM163.392 37L165.372 30.796H164.316L162.924 35.872H162.9L161.604 30.796H160.488L159.24 35.872H159.216L157.812 30.796H156.684L158.676 37H159.78L161.028 32.068H161.052L162.312 37H163.392ZM171.837 36.976C171.661 37.08 171.417 37.132 171.105 37.132C170.841 37.132 170.629 37.06 170.469 36.916C170.317 36.764 170.241 36.52 170.241 36.184C169.961 36.52 169.633 36.764 169.257 36.916C168.889 37.06 168.489 37.132 168.057 37.132C167.777 37.132 167.509 37.1 167.253 37.036C167.005 36.972 166.789 36.872 166.605 36.736C166.421 36.6 166.273 36.424 166.161 36.208C166.057 35.984 166.005 35.716 166.005 35.404C166.005 35.052 166.065 34.764 166.185 34.54C166.305 34.316 166.461 34.136 166.653 34C166.853 33.856 167.077 33.748 167.325 33.676C167.581 33.604 167.841 33.544 168.105 33.496C168.385 33.44 168.649 33.4 168.897 33.376C169.153 33.344 169.377 33.304 169.569 33.256C169.761 33.2 169.913 33.124 170.025 33.028C170.137 32.924 170.193 32.776 170.193 32.584C170.193 32.36 170.149 32.18 170.061 32.044C169.981 31.908 169.873 31.804 169.737 31.732C169.609 31.66 169.461 31.612 169.293 31.588C169.133 31.564 168.973 31.552 168.813 31.552C168.381 31.552 168.021 31.636 167.733 31.804C167.445 31.964 167.289 32.272 167.265 32.728H166.245C166.261 32.344 166.341 32.02 166.485 31.756C166.629 31.492 166.821 31.28 167.061 31.12C167.301 30.952 167.573 30.832 167.877 30.76C168.189 30.688 168.521 30.652 168.873 30.652C169.153 30.652 169.429 30.672 169.701 30.712C169.981 30.752 170.233 30.836 170.457 30.964C170.681 31.084 170.861 31.256 170.997 31.48C171.133 31.704 171.201 31.996 171.201 32.356V35.548C171.201 35.788 171.213 35.964 171.237 36.076C171.269 36.188 171.365 36.244 171.525 36.244C171.613 36.244 171.717 36.224 171.837 36.184V36.976ZM170.181 33.796C170.053 33.892 169.885 33.964 169.677 34.012C169.469 34.052 169.249 34.088 169.017 34.12C168.793 34.144 168.565 34.176 168.333 34.216C168.101 34.248 167.893 34.304 167.709 34.384C167.525 34.464 167.373 34.58 167.253 34.732C167.141 34.876 167.085 35.076 167.085 35.332C167.085 35.5 167.117 35.644 167.181 35.764C167.253 35.876 167.341 35.968 167.445 36.04C167.557 36.112 167.685 36.164 167.829 36.196C167.973 36.228 168.125 36.244 168.285 36.244C168.621 36.244 168.909 36.2 169.149 36.112C169.389 36.016 169.585 35.9 169.737 35.764C169.889 35.62 170.001 35.468 170.073 35.308C170.145 35.14 170.181 34.984 170.181 34.84V33.796ZM172.751 30.796V37H173.771V34.24C173.771 33.84 173.811 33.488 173.891 33.184C173.971 32.872 174.099 32.608 174.275 32.392C174.451 32.176 174.683 32.012 174.971 31.9C175.259 31.788 175.607 31.732 176.015 31.732V30.652C175.463 30.636 175.007 30.748 174.647 30.988C174.287 31.228 173.983 31.6 173.735 32.104H173.711V30.796H172.751ZM180.88 33.304H177.316C177.332 33.064 177.384 32.84 177.472 32.632C177.56 32.416 177.68 32.228 177.832 32.068C177.984 31.908 178.164 31.784 178.372 31.696C178.588 31.6 178.828 31.552 179.092 31.552C179.348 31.552 179.58 31.6 179.788 31.696C180.004 31.784 180.188 31.908 180.34 32.068C180.5 32.22 180.624 32.404 180.712 32.62C180.808 32.836 180.864 33.064 180.88 33.304ZM181.864 35.032H180.856C180.768 35.44 180.584 35.744 180.304 35.944C180.032 36.144 179.68 36.244 179.248 36.244C178.912 36.244 178.62 36.188 178.372 36.076C178.124 35.964 177.92 35.816 177.76 35.632C177.6 35.44 177.484 35.224 177.412 34.984C177.34 34.736 177.308 34.476 177.316 34.204H181.96C181.976 33.828 181.94 33.432 181.852 33.016C181.772 32.6 181.62 32.216 181.396 31.864C181.18 31.512 180.888 31.224 180.52 31C180.16 30.768 179.704 30.652 179.152 30.652C178.728 30.652 178.336 30.732 177.976 30.892C177.624 31.052 177.316 31.276 177.052 31.564C176.796 31.852 176.596 32.192 176.452 32.584C176.308 32.976 176.236 33.408 176.236 33.88C176.252 34.352 176.32 34.788 176.44 35.188C176.568 35.588 176.756 35.932 177.004 36.22C177.252 36.508 177.556 36.732 177.916 36.892C178.284 37.052 178.716 37.132 179.212 37.132C179.916 37.132 180.5 36.956 180.964 36.604C181.428 36.252 181.728 35.728 181.864 35.032ZM186.981 35.044H185.961C185.977 35.428 186.057 35.756 186.201 36.028C186.345 36.292 186.537 36.508 186.777 36.676C187.017 36.836 187.293 36.952 187.605 37.024C187.917 37.096 188.245 37.132 188.589 37.132C188.901 37.132 189.213 37.1 189.525 37.036C189.845 36.98 190.129 36.876 190.377 36.724C190.633 36.572 190.837 36.372 190.989 36.124C191.149 35.876 191.229 35.564 191.229 35.188C191.229 34.892 191.169 34.644 191.049 34.444C190.937 34.244 190.785 34.08 190.593 33.952C190.409 33.816 190.193 33.708 189.945 33.628C189.705 33.548 189.457 33.48 189.201 33.424C188.961 33.368 188.721 33.316 188.481 33.268C188.241 33.212 188.025 33.148 187.833 33.076C187.641 32.996 187.481 32.9 187.353 32.788C187.233 32.668 187.173 32.52 187.173 32.344C187.173 32.184 187.213 32.056 187.293 31.96C187.373 31.856 187.477 31.776 187.605 31.72C187.733 31.656 187.873 31.612 188.025 31.588C188.185 31.564 188.341 31.552 188.493 31.552C188.661 31.552 188.825 31.572 188.985 31.612C189.153 31.644 189.305 31.7 189.441 31.78C189.577 31.86 189.689 31.968 189.777 32.104C189.865 32.232 189.917 32.396 189.933 32.596H190.953C190.929 32.22 190.849 31.908 190.713 31.66C190.577 31.404 190.393 31.204 190.161 31.06C189.937 30.908 189.677 30.804 189.381 30.748C189.085 30.684 188.761 30.652 188.409 30.652C188.137 30.652 187.861 30.688 187.581 30.76C187.309 30.824 187.061 30.928 186.837 31.072C186.621 31.208 186.441 31.388 186.297 31.612C186.161 31.836 186.093 32.104 186.093 32.416C186.093 32.816 186.193 33.128 186.393 33.352C186.593 33.576 186.841 33.752 187.137 33.88C187.441 34 187.769 34.096 188.121 34.168C188.473 34.232 188.797 34.308 189.093 34.396C189.397 34.476 189.649 34.584 189.849 34.72C190.049 34.856 190.149 35.056 190.149 35.32C190.149 35.512 190.101 35.672 190.005 35.8C189.909 35.92 189.785 36.012 189.633 36.076C189.489 36.14 189.329 36.184 189.153 36.208C188.977 36.232 188.809 36.244 188.649 36.244C188.441 36.244 188.237 36.224 188.037 36.184C187.845 36.144 187.669 36.08 187.509 35.992C187.357 35.896 187.233 35.772 187.137 35.62C187.041 35.46 186.989 35.268 186.981 35.044ZM193.101 33.904C193.101 33.528 193.149 33.196 193.245 32.908C193.349 32.612 193.489 32.364 193.665 32.164C193.841 31.964 194.045 31.812 194.277 31.708C194.517 31.604 194.769 31.552 195.033 31.552C195.297 31.552 195.545 31.604 195.777 31.708C196.017 31.812 196.225 31.964 196.401 32.164C196.577 32.364 196.713 32.612 196.809 32.908C196.913 33.196 196.965 33.528 196.965 33.904C196.965 34.28 196.913 34.616 196.809 34.912C196.713 35.2 196.577 35.444 196.401 35.644C196.225 35.836 196.017 35.984 195.777 36.088C195.545 36.192 195.297 36.244 195.033 36.244C194.769 36.244 194.517 36.192 194.277 36.088C194.045 35.984 193.841 35.836 193.665 35.644C193.489 35.444 193.349 35.2 193.245 34.912C193.149 34.616 193.101 34.28 193.101 33.904ZM192.021 33.904C192.021 34.36 192.085 34.784 192.213 35.176C192.341 35.568 192.533 35.912 192.789 36.208C193.045 36.496 193.361 36.724 193.737 36.892C194.113 37.052 194.545 37.132 195.033 37.132C195.529 37.132 195.961 37.052 196.329 36.892C196.705 36.724 197.021 36.496 197.277 36.208C197.533 35.912 197.725 35.568 197.853 35.176C197.981 34.784 198.045 34.36 198.045 33.904C198.045 33.448 197.981 33.024 197.853 32.632C197.725 32.232 197.533 31.888 197.277 31.6C197.021 31.304 196.705 31.072 196.329 30.904C195.961 30.736 195.529 30.652 195.033 30.652C194.545 30.652 194.113 30.736 193.737 30.904C193.361 31.072 193.045 31.304 192.789 31.6C192.533 31.888 192.341 32.232 192.213 32.632C192.085 33.024 192.021 33.448 192.021 33.904ZM199.308 28.432V37H200.328V28.432H199.308ZM207.044 37V30.796H206.024V34.3C206.024 34.58 205.984 34.84 205.904 35.08C205.832 35.312 205.72 35.516 205.568 35.692C205.416 35.868 205.224 36.004 204.992 36.1C204.768 36.196 204.5 36.244 204.188 36.244C203.796 36.244 203.488 36.132 203.264 35.908C203.04 35.684 202.928 35.38 202.928 34.996V30.796H201.908V34.876C201.908 35.212 201.94 35.52 202.004 35.8C202.076 36.072 202.196 36.308 202.364 36.508C202.532 36.708 202.752 36.864 203.024 36.976C203.296 37.08 203.636 37.132 204.044 37.132C204.5 37.132 204.896 37.044 205.232 36.868C205.568 36.684 205.844 36.4 206.06 36.016H206.084V37H207.044ZM209.992 30.796V28.936H208.972V30.796H207.916V31.696H208.972V35.644C208.972 35.932 209 36.164 209.056 36.34C209.112 36.516 209.196 36.652 209.308 36.748C209.428 36.844 209.58 36.912 209.764 36.952C209.956 36.984 210.184 37 210.448 37H211.228V36.1H210.76C210.6 36.1 210.468 36.096 210.364 36.088C210.268 36.072 210.192 36.044 210.136 36.004C210.08 35.964 210.04 35.908 210.016 35.836C210 35.764 209.992 35.668 209.992 35.548V31.696H211.228V30.796H209.992ZM213.441 29.68V28.432H212.421V29.68H213.441ZM212.421 30.796V37H213.441V30.796H212.421ZM215.765 33.904C215.765 33.528 215.813 33.196 215.909 32.908C216.013 32.612 216.153 32.364 216.329 32.164C216.505 31.964 216.709 31.812 216.941 31.708C217.181 31.604 217.433 31.552 217.697 31.552C217.961 31.552 218.209 31.604 218.441 31.708C218.681 31.812 218.889 31.964 219.065 32.164C219.241 32.364 219.377 32.612 219.473 32.908C219.577 33.196 219.629 33.528 219.629 33.904C219.629 34.28 219.577 34.616 219.473 34.912C219.377 35.2 219.241 35.444 219.065 35.644C218.889 35.836 218.681 35.984 218.441 36.088C218.209 36.192 217.961 36.244 217.697 36.244C217.433 36.244 217.181 36.192 216.941 36.088C216.709 35.984 216.505 35.836 216.329 35.644C216.153 35.444 216.013 35.2 215.909 34.912C215.813 34.616 215.765 34.28 215.765 33.904ZM214.685 33.904C214.685 34.36 214.749 34.784 214.877 35.176C215.005 35.568 215.197 35.912 215.453 36.208C215.709 36.496 216.025 36.724 216.401 36.892C216.777 37.052 217.209 37.132 217.697 37.132C218.193 37.132 218.625 37.052 218.993 36.892C219.369 36.724 219.685 36.496 219.941 36.208C220.197 35.912 220.389 35.568 220.517 35.176C220.645 34.784 220.709 34.36 220.709 33.904C220.709 33.448 220.645 33.024 220.517 32.632C220.389 32.232 220.197 31.888 219.941 31.6C219.685 31.304 219.369 31.072 218.993 30.904C218.625 30.736 218.193 30.652 217.697 30.652C217.209 30.652 216.777 30.736 216.401 30.904C216.025 31.072 215.709 31.304 215.453 31.6C215.197 31.888 215.005 32.232 214.877 32.632C214.749 33.024 214.685 33.448 214.685 33.904ZM221.912 30.796V37H222.932V33.496C222.932 33.216 222.968 32.96 223.04 32.728C223.12 32.488 223.236 32.28 223.388 32.104C223.54 31.928 223.728 31.792 223.952 31.696C224.184 31.6 224.456 31.552 224.768 31.552C225.16 31.552 225.468 31.664 225.692 31.888C225.916 32.112 226.028 32.416 226.028 32.8V37H227.048V32.92C227.048 32.584 227.012 32.28 226.94 32.008C226.876 31.728 226.76 31.488 226.592 31.288C226.424 31.088 226.204 30.932 225.932 30.82C225.66 30.708 225.32 30.652 224.912 30.652C223.992 30.652 223.32 31.028 222.896 31.78H222.872V30.796H221.912Z" fill="#C3CEE2"/>
<path d="M67.8495 7.72H70.8295L74.0695 12.76L77.4495 7.72H80.2495L75.5295 14.6L80.5895 22H77.5495L73.9895 16.54L70.3695 22H67.5095L72.5695 14.6L67.8495 7.72ZM91.6982 12.26C91.5916 11.8467 91.4449 11.4667 91.2582 11.12C91.0716 10.7733 90.8316 10.4733 90.5382 10.22C90.2449 9.96667 89.8982 9.77333 89.4982 9.64C89.1116 9.49333 88.6582 9.42 88.1382 9.42C87.3782 9.42 86.7182 9.57333 86.1582 9.88C85.6116 10.1867 85.1649 10.6 84.8182 11.12C84.4716 11.6267 84.2116 12.2067 84.0382 12.86C83.8782 13.5133 83.7982 14.18 83.7982 14.86C83.7982 15.54 83.8782 16.2067 84.0382 16.86C84.2116 17.5133 84.4716 18.1 84.8182 18.62C85.1649 19.1267 85.6116 19.5333 86.1582 19.84C86.7182 20.1467 87.3782 20.3 88.1382 20.3C88.6982 20.3 89.1916 20.2067 89.6182 20.02C90.0449 19.82 90.4116 19.5533 90.7182 19.22C91.0249 18.8733 91.2649 18.4733 91.4382 18.02C91.6116 17.5667 91.7249 17.08 91.7782 16.56H94.2182C94.1649 17.4133 93.9782 18.1933 93.6582 18.9C93.3516 19.6067 92.9316 20.22 92.3982 20.74C91.8649 21.2467 91.2382 21.64 90.5182 21.92C89.7982 22.2 89.0049 22.34 88.1382 22.34C87.0716 22.34 86.1116 22.1467 85.2582 21.76C84.4182 21.36 83.7049 20.82 83.1182 20.14C82.5316 19.46 82.0782 18.6667 81.7582 17.76C81.4516 16.8533 81.2982 15.8867 81.2982 14.86C81.2982 13.8467 81.4516 12.8867 81.7582 11.98C82.0782 11.0733 82.5316 10.28 83.1182 9.6C83.7049 8.92 84.4182 8.38 85.2582 7.98C86.1116 7.58 87.0716 7.38 88.1382 7.38C88.9382 7.38 89.6916 7.49333 90.3982 7.72C91.1049 7.93333 91.7249 8.25333 92.2582 8.68C92.8049 9.09333 93.2449 9.6 93.5782 10.2C93.9116 10.8 94.1182 11.4867 94.1982 12.26H91.6982ZM100.912 22.28C100.085 22.28 99.3452 22.1467 98.6918 21.88C98.0518 21.6 97.5052 21.22 97.0518 20.74C96.6118 20.26 96.2718 19.6867 96.0318 19.02C95.8052 18.3533 95.6918 17.62 95.6918 16.82C95.6918 16.0333 95.8052 15.3067 96.0318 14.64C96.2718 13.9733 96.6118 13.4 97.0518 12.92C97.5052 12.44 98.0518 12.0667 98.6918 11.8C99.3452 11.52 100.085 11.38 100.912 11.38C101.738 11.38 102.472 11.52 103.112 11.8C103.765 12.0667 104.312 12.44 104.752 12.92C105.205 13.4 105.545 13.9733 105.772 14.64C106.012 15.3067 106.132 16.0333 106.132 16.82C106.132 17.62 106.012 18.3533 105.772 19.02C105.545 19.6867 105.205 20.26 104.752 20.74C104.312 21.22 103.765 21.6 103.112 21.88C102.472 22.1467 101.738 22.28 100.912 22.28ZM100.912 20.48C101.418 20.48 101.858 20.3733 102.232 20.16C102.605 19.9467 102.912 19.6667 103.152 19.32C103.392 18.9733 103.565 18.5867 103.672 18.16C103.792 17.72 103.852 17.2733 103.852 16.82C103.852 16.38 103.792 15.94 103.672 15.5C103.565 15.06 103.392 14.6733 103.152 14.34C102.912 13.9933 102.605 13.7133 102.232 13.5C101.858 13.2867 101.418 13.18 100.912 13.18C100.405 13.18 99.9652 13.2867 99.5918 13.5C99.2185 13.7133 98.9118 13.9933 98.6718 14.34C98.4318 14.6733 98.2518 15.06 98.1318 15.5C98.0252 15.94 97.9718 16.38 97.9718 16.82C97.9718 17.2733 98.0252 17.72 98.1318 18.16C98.2518 18.5867 98.4318 18.9733 98.6718 19.32C98.9118 19.6667 99.2185 19.9467 99.5918 20.16C99.9652 20.3733 100.405 20.48 100.912 20.48ZM108.027 11.66H110.187V13.1H110.247C110.421 12.8467 110.607 12.6133 110.807 12.4C111.007 12.1867 111.227 12.0067 111.467 11.86C111.721 11.7133 112.007 11.6 112.327 11.52C112.647 11.4267 113.014 11.38 113.427 11.38C114.054 11.38 114.634 11.52 115.167 11.8C115.714 12.08 116.101 12.5133 116.327 13.1C116.714 12.5667 117.161 12.1467 117.667 11.84C118.174 11.5333 118.807 11.38 119.567 11.38C120.661 11.38 121.507 11.6467 122.107 12.18C122.721 12.7133 123.027 13.6067 123.027 14.86V22H120.747V15.96C120.747 15.5467 120.734 15.1733 120.707 14.84C120.681 14.4933 120.601 14.2 120.467 13.96C120.347 13.7067 120.161 13.5133 119.907 13.38C119.654 13.2467 119.307 13.18 118.867 13.18C118.094 13.18 117.534 13.42 117.187 13.9C116.841 14.38 116.667 15.06 116.667 15.94V22H114.387V15.36C114.387 14.64 114.254 14.1 113.987 13.74C113.734 13.3667 113.261 13.18 112.567 13.18C112.274 13.18 111.987 13.24 111.707 13.36C111.441 13.48 111.201 13.6533 110.987 13.88C110.787 14.1067 110.621 14.3867 110.487 14.72C110.367 15.0533 110.307 15.4333 110.307 15.86V22H108.027V11.66ZM125.49 11.66H127.65V13.06H127.69C128.01 12.46 128.456 12.0333 129.03 11.78C129.603 11.5133 130.223 11.38 130.89 11.38C131.703 11.38 132.41 11.5267 133.01 11.82C133.623 12.1 134.13 12.4933 134.53 13C134.93 13.4933 135.23 14.0733 135.43 14.74C135.63 15.4067 135.73 16.12 135.73 16.88C135.73 17.5733 135.636 18.2467 135.45 18.9C135.276 19.5533 135.003 20.1333 134.63 20.64C134.27 21.1333 133.81 21.5333 133.25 21.84C132.69 22.1333 132.03 22.28 131.27 22.28C130.936 22.28 130.603 22.2467 130.27 22.18C129.936 22.1267 129.616 22.0333 129.31 21.9C129.003 21.7667 128.716 21.6 128.45 21.4C128.196 21.1867 127.983 20.94 127.81 20.66H127.77V25.82H125.49V11.66ZM133.45 16.84C133.45 16.3733 133.39 15.92 133.27 15.48C133.15 15.04 132.97 14.6533 132.73 14.32C132.49 13.9733 132.19 13.7 131.83 13.5C131.47 13.2867 131.056 13.18 130.59 13.18C129.63 13.18 128.903 13.5133 128.41 14.18C127.93 14.8467 127.69 15.7333 127.69 16.84C127.69 17.36 127.75 17.8467 127.87 18.3C128.003 18.74 128.196 19.12 128.45 19.44C128.703 19.76 129.003 20.0133 129.35 20.2C129.71 20.3867 130.123 20.48 130.59 20.48C131.11 20.48 131.55 20.3733 131.91 20.16C132.27 19.9467 132.563 19.6733 132.79 19.34C133.03 18.9933 133.196 18.6067 133.29 18.18C133.396 17.74 133.45 17.2933 133.45 16.84ZM146.316 19.7C146.316 19.98 146.35 20.18 146.416 20.3C146.496 20.42 146.643 20.48 146.856 20.48C146.923 20.48 147.003 20.48 147.096 20.48C147.19 20.48 147.296 20.4667 147.416 20.44V22.02C147.336 22.0467 147.23 22.0733 147.096 22.1C146.976 22.14 146.85 22.1733 146.716 22.2C146.583 22.2267 146.45 22.2467 146.316 22.26C146.183 22.2733 146.07 22.28 145.976 22.28C145.51 22.28 145.123 22.1867 144.816 22C144.51 21.8133 144.31 21.4867 144.216 21.02C143.763 21.46 143.203 21.78 142.536 21.98C141.883 22.18 141.25 22.28 140.636 22.28C140.17 22.28 139.723 22.2133 139.296 22.08C138.87 21.96 138.49 21.78 138.156 21.54C137.836 21.2867 137.576 20.9733 137.376 20.6C137.19 20.2133 137.096 19.7667 137.096 19.26C137.096 18.62 137.21 18.1 137.436 17.7C137.676 17.3 137.983 16.9867 138.356 16.76C138.743 16.5333 139.17 16.3733 139.636 16.28C140.116 16.1733 140.596 16.0933 141.076 16.04C141.49 15.96 141.883 15.9067 142.256 15.88C142.63 15.84 142.956 15.78 143.236 15.7C143.53 15.62 143.756 15.5 143.916 15.34C144.09 15.1667 144.176 14.9133 144.176 14.58C144.176 14.2867 144.103 14.0467 143.956 13.86C143.823 13.6733 143.65 13.5333 143.436 13.44C143.236 13.3333 143.01 13.2667 142.756 13.24C142.503 13.2 142.263 13.18 142.036 13.18C141.396 13.18 140.87 13.3133 140.456 13.58C140.043 13.8467 139.81 14.26 139.756 14.82H137.476C137.516 14.1533 137.676 13.6 137.956 13.16C138.236 12.72 138.59 12.3667 139.016 12.1C139.456 11.8333 139.95 11.6467 140.496 11.54C141.043 11.4333 141.603 11.38 142.176 11.38C142.683 11.38 143.183 11.4333 143.676 11.54C144.17 11.6467 144.61 11.82 144.996 12.06C145.396 12.3 145.716 12.6133 145.956 13C146.196 13.3733 146.316 13.8333 146.316 14.38V19.7ZM144.036 16.82C143.69 17.0467 143.263 17.1867 142.756 17.24C142.25 17.28 141.743 17.3467 141.236 17.44C140.996 17.48 140.763 17.54 140.536 17.62C140.31 17.6867 140.11 17.7867 139.936 17.92C139.763 18.04 139.623 18.2067 139.516 18.42C139.423 18.62 139.376 18.8667 139.376 19.16C139.376 19.4133 139.45 19.6267 139.596 19.8C139.743 19.9733 139.916 20.1133 140.116 20.22C140.33 20.3133 140.556 20.38 140.796 20.42C141.05 20.46 141.276 20.48 141.476 20.48C141.73 20.48 142.003 20.4467 142.296 20.38C142.59 20.3133 142.863 20.2 143.116 20.04C143.383 19.88 143.603 19.68 143.776 19.44C143.95 19.1867 144.036 18.88 144.036 18.52V16.82ZM148.769 11.66H150.929V13.18L150.969 13.22C151.316 12.6467 151.769 12.2 152.329 11.88C152.889 11.5467 153.509 11.38 154.189 11.38C155.323 11.38 156.216 11.6733 156.869 12.26C157.523 12.8467 157.849 13.7267 157.849 14.9V22H155.569V15.5C155.543 14.6867 155.369 14.1 155.049 13.74C154.729 13.3667 154.229 13.18 153.549 13.18C153.163 13.18 152.816 13.2533 152.509 13.4C152.203 13.5333 151.943 13.7267 151.729 13.98C151.516 14.22 151.349 14.5067 151.229 14.84C151.109 15.1733 151.049 15.5267 151.049 15.9V22H148.769V11.66ZM159.114 11.66H161.614L164.314 19.38H164.354L166.974 11.66H169.354L165.334 22.56C165.147 23.0267 164.961 23.4733 164.774 23.9C164.601 24.3267 164.381 24.7 164.114 25.02C163.861 25.3533 163.541 25.6133 163.154 25.8C162.767 26 162.274 26.1 161.674 26.1C161.141 26.1 160.614 26.06 160.094 25.98V24.06C160.281 24.0867 160.461 24.1133 160.634 24.14C160.807 24.18 160.987 24.2 161.174 24.2C161.441 24.2 161.661 24.1667 161.834 24.1C162.007 24.0333 162.147 23.9333 162.254 23.8C162.374 23.68 162.474 23.5333 162.554 23.36C162.634 23.1867 162.707 22.9867 162.774 22.76L163.034 21.96L159.114 11.66Z" fill="#393E46"/>
<rect width="16" height="38" fill="#C3CEE2"/>
<rect x="16" width="16" height="38" fill="#43867F"/>
<rect x="32" width="16" height="38" fill="#23C4B3"/>
</svg>
