<svg width="40" height="22" viewBox="0 0 40 22" fill="none" xmlns="http://www.w3.org/2000/svg">
<path fill-rule="evenodd" clip-rule="evenodd" d="M29.2987 0.000246401C23.3964 0.0104847 18.6141 4.79273 18.6039 10.6951C18.5935 10.7566 18.5935 10.8195 18.6039 10.8811C18.5909 10.9736 18.5909 11.0675 18.6039 11.1601C18.3878 14.8693 15.612 17.9245 11.9404 18.4943C8.2689 19.0641 4.69764 16.994 3.36743 13.5248C2.03721 10.0556 3.3089 6.12846 6.42018 4.09751C9.53147 2.06656 13.6383 2.48274 16.2789 5.09657C16.6267 5.46978 17.1504 5.6234 17.6447 5.49718C18.1389 5.37095 18.5249 4.98501 18.6511 4.49075C18.7773 3.9965 18.6237 3.47276 18.2505 3.125C14.8249 -0.293625 9.5305 -0.985809 5.34117 1.43725C1.15185 3.86031 -0.88822 8.79466 0.366878 13.4687C1.62198 18.1427 5.85941 21.3914 10.699 21.3899C16.4215 21.3854 21.1264 16.8771 21.3752 11.1601C21.3842 11.0735 21.3842 10.9862 21.3752 10.8997C21.3858 10.8194 21.3858 10.7381 21.3752 10.6579C21.3958 6.29946 24.9402 2.78 29.2986 2.79025C33.6571 2.80049 37.1849 6.33658 37.1849 10.695C37.1849 15.0535 33.6572 18.5897 29.2987 18.6C27.329 18.6053 25.4296 17.8681 23.9792 16.5354C23.4305 16.0015 22.5564 16.0015 22.0076 16.5354C21.7283 16.8127 21.579 17.1951 21.5967 17.5883C21.6144 17.9815 21.7975 18.3489 22.1006 18.6C25.6336 21.8195 30.8739 22.3038 34.937 19.7864C39.0002 17.2689 40.8996 12.361 39.5896 7.76412C38.2797 3.16728 34.0786 -0.00223288 29.2987 0.000246401Z" fill="#700AAB"/>
</svg>
